<svg width="48" height="32" viewBox="0 0 48 32" fill="none" xmlns="http://www.w3.org/2000/svg">
<g id="Payment Method/Amex">
<rect x="0.799662" y="0.799662" width="46.4007" height="30.4007" rx="3.20034" fill="#016FD0"/>
<path id="Vector" fill-rule="evenodd" clip-rule="evenodd" d="M9.17575 11.2002L4.80078 20.8818H10.0382L10.6875 19.3382H12.1717L12.8209 20.8818H18.5859V19.7037L19.0996 20.8818H22.0817L22.5954 19.6788V20.8818H34.5849L36.0428 19.3783L37.4079 20.8818L43.5659 20.8943L39.1772 16.068L43.5659 11.2002H37.5034L36.0842 12.676L34.7621 11.2002H21.7191L20.5991 13.6991L19.4528 11.2002H14.2263V12.3383L13.6449 11.2002H9.17575ZM27.0797 12.575H33.9646L36.0704 14.8496L38.2441 12.575H40.3499L37.1503 16.0667L40.3499 19.5181H38.1486L36.0428 17.2171L33.858 19.5181H27.0797V12.575ZM28.7799 15.2816V14.0122H33.0759L34.9504 16.0404L32.9928 18.0797H28.7799V16.6952H32.5359V15.2816H28.7799ZM10.1892 12.575H12.7421L15.6441 19.1402V12.575H18.4407L20.6821 17.2822L22.7478 12.575H25.5305V19.5222H23.8373L23.8235 14.0784L21.3549 19.5222H19.8403L17.3579 14.0784V19.5222H13.8746L13.2142 17.9648H9.64647L8.98746 19.5209H7.12113L10.1892 12.575ZM10.2557 16.525L11.4311 13.7504L12.6052 16.525H10.2557Z" fill="white"/>
<rect x="0.799662" y="0.799662" width="46.4007" height="30.4007" rx="3.20034" stroke="#CDD2D8" stroke-width="1.59932"/>
</g>
</svg>
