<svg width="47" height="32" viewBox="0 0 47 32" fill="none" xmlns="http://www.w3.org/2000/svg">
<g id="Payment Method/ApplePay">
<rect x="0.5" y="0.5" width="46" height="31" rx="3.5" fill="white"/>
<path id="Vector" fill-rule="evenodd" clip-rule="evenodd" d="M11.4282 11.7826C12.0431 11.8356 12.658 11.4648 13.0423 10.9947C13.4202 10.5113 13.67 9.86236 13.6059 9.2002C13.0615 9.22668 12.3889 9.57101 12.0046 10.0544C11.6524 10.4715 11.3513 11.147 11.4282 11.7826ZM18.7428 20.3113V9.98817H22.4898C24.4242 9.98817 25.7757 11.3655 25.7757 13.3784C25.7757 15.3914 24.3986 16.7819 22.4386 16.7819H20.2929V20.3113H18.7428ZM13.5995 11.9084C13.0578 11.8762 12.5635 12.0768 12.1642 12.2389C11.9073 12.3432 11.6897 12.4315 11.5242 12.4315C11.3385 12.4315 11.1119 12.3385 10.8575 12.234C10.5242 12.0971 10.1432 11.9406 9.74358 11.9482C8.82765 11.9614 7.97577 12.4978 7.50819 13.3519C6.54742 15.0603 7.25839 17.5898 8.18714 18.9803C8.6419 19.669 9.18634 20.4238 9.90371 20.3973C10.2193 20.385 10.4463 20.2854 10.6813 20.1824C10.9518 20.0637 11.2328 19.9404 11.6715 19.9404C12.0951 19.9404 12.3638 20.0605 12.6217 20.1757C12.867 20.2853 13.1025 20.3905 13.4521 20.3841C14.1951 20.3709 14.6627 19.6954 15.1175 19.0068C15.6082 18.2677 15.8239 17.5464 15.8566 17.4369C15.8585 17.4306 15.8598 17.4264 15.8605 17.4242C15.8597 17.4234 15.8536 17.4206 15.8429 17.4155C15.6789 17.3378 14.4249 16.7444 14.4129 15.153C14.4008 13.8173 15.4075 13.1405 15.566 13.034C15.5756 13.0275 15.5821 13.0231 15.5851 13.0209C14.9445 12.0409 13.9453 11.9349 13.5995 11.9084ZM28.6068 20.3907C29.5804 20.3907 30.4835 19.8809 30.8934 19.073H30.9255V20.3113H32.3602V15.1729C32.3602 13.683 31.2073 12.7229 29.4331 12.7229C27.7869 12.7229 26.57 13.6963 26.5251 15.0338H27.9215C28.0367 14.3982 28.6068 13.981 29.3882 13.981C30.3362 13.981 30.8678 14.4379 30.8678 15.2788V15.8483L28.9335 15.9675C27.1336 16.0801 26.16 16.8415 26.16 18.1659C26.16 19.5034 27.1656 20.3907 28.6068 20.3907ZM29.023 19.1657C28.1968 19.1657 27.6716 18.7552 27.6716 18.1261C27.6716 17.4772 28.1776 17.0998 29.1447 17.0402L30.8677 16.9276V17.5103C30.8677 18.4771 30.0735 19.1657 29.023 19.1657ZM37.1192 20.7152C36.4979 22.5229 35.7869 23.1188 34.2753 23.1188C34.16 23.1188 33.7757 23.1056 33.686 23.0791V21.8409C33.7821 21.8541 34.0191 21.8673 34.1408 21.8673C34.8261 21.8673 35.2104 21.5694 35.4474 20.7946L35.5883 20.3378L32.9622 12.8222H34.5827L36.4082 18.9207H36.4402L38.2657 12.8222H39.8413L37.1192 20.7152ZM20.2927 11.339H22.0798C23.4248 11.339 24.1935 12.0806 24.1935 13.3851C24.1935 14.6895 23.4248 15.4378 22.0734 15.4378H20.2927V11.339Z" fill="black"/>
<rect x="0.5" y="0.5" width="46" height="31" rx="3.5" stroke="#CDD2D8"/>
</g>
</svg>
