<svg width="32" height="32" viewBox="0 0 32 32" fill="none" xmlns="http://www.w3.org/2000/svg">
<g id="calendar_month">
<mask id="mask0_714_1861" style="mask-type:alpha" maskUnits="userSpaceOnUse" x="0" y="0" width="32" height="32">
<rect id="Bounding box" width="32" height="32" fill="#D9D9D9"/>
</mask>
<g mask="url(#mask0_714_1861)">
<path id="calendar_month_2" d="M6.66667 29.3337C5.93333 29.3337 5.30533 29.0728 4.78267 28.551C4.26089 28.0283 4 27.4003 4 26.667V8.00033C4 7.26699 4.26089 6.63944 4.78267 6.11766C5.30533 5.59499 5.93333 5.33366 6.66667 5.33366H8V2.66699H10.6667V5.33366H21.3333V2.66699H24V5.33366H25.3333C26.0667 5.33366 26.6947 5.59499 27.2173 6.11766C27.7391 6.63944 28 7.26699 28 8.00033V26.667C28 27.4003 27.7391 28.0283 27.2173 28.551C26.6947 29.0728 26.0667 29.3337 25.3333 29.3337H6.66667ZM6.66667 26.667H25.3333V13.3337H6.66667V26.667ZM6.66667 10.667H25.3333V8.00033H6.66667V10.667ZM16 18.667C15.6222 18.667 15.3058 18.539 15.0507 18.283C14.7947 18.0279 14.6667 17.7114 14.6667 17.3337C14.6667 16.9559 14.7947 16.639 15.0507 16.383C15.3058 16.1279 15.6222 16.0003 16 16.0003C16.3778 16.0003 16.6947 16.1279 16.9507 16.383C17.2058 16.639 17.3333 16.9559 17.3333 17.3337C17.3333 17.7114 17.2058 18.0279 16.9507 18.283C16.6947 18.539 16.3778 18.667 16 18.667ZM10.6667 18.667C10.2889 18.667 9.972 18.539 9.716 18.283C9.46089 18.0279 9.33333 17.7114 9.33333 17.3337C9.33333 16.9559 9.46089 16.639 9.716 16.383C9.972 16.1279 10.2889 16.0003 10.6667 16.0003C11.0444 16.0003 11.3613 16.1279 11.6173 16.383C11.8724 16.639 12 16.9559 12 17.3337C12 17.7114 11.8724 18.0279 11.6173 18.283C11.3613 18.539 11.0444 18.667 10.6667 18.667ZM21.3333 18.667C20.9556 18.667 20.6391 18.539 20.384 18.283C20.128 18.0279 20 17.7114 20 17.3337C20 16.9559 20.128 16.639 20.384 16.383C20.6391 16.1279 20.9556 16.0003 21.3333 16.0003C21.7111 16.0003 22.0276 16.1279 22.2827 16.383C22.5387 16.639 22.6667 16.9559 22.6667 17.3337C22.6667 17.7114 22.5387 18.0279 22.2827 18.283C22.0276 18.539 21.7111 18.667 21.3333 18.667ZM16 24.0003C15.6222 24.0003 15.3058 23.8723 15.0507 23.6163C14.7947 23.3612 14.6667 23.0448 14.6667 22.667C14.6667 22.2892 14.7947 21.9728 15.0507 21.7177C15.3058 21.4617 15.6222 21.3337 16 21.3337C16.3778 21.3337 16.6947 21.4617 16.9507 21.7177C17.2058 21.9728 17.3333 22.2892 17.3333 22.667C17.3333 23.0448 17.2058 23.3612 16.9507 23.6163C16.6947 23.8723 16.3778 24.0003 16 24.0003ZM10.6667 24.0003C10.2889 24.0003 9.972 23.8723 9.716 23.6163C9.46089 23.3612 9.33333 23.0448 9.33333 22.667C9.33333 22.2892 9.46089 21.9728 9.716 21.7177C9.972 21.4617 10.2889 21.3337 10.6667 21.3337C11.0444 21.3337 11.3613 21.4617 11.6173 21.7177C11.8724 21.9728 12 22.2892 12 22.667C12 23.0448 11.8724 23.3612 11.6173 23.6163C11.3613 23.8723 11.0444 24.0003 10.6667 24.0003ZM21.3333 24.0003C20.9556 24.0003 20.6391 23.8723 20.384 23.6163C20.128 23.3612 20 23.0448 20 22.667C20 22.2892 20.128 21.9728 20.384 21.7177C20.6391 21.4617 20.9556 21.3337 21.3333 21.3337C21.7111 21.3337 22.0276 21.4617 22.2827 21.7177C22.5387 21.9728 22.6667 22.2892 22.6667 22.667C22.6667 23.0448 22.5387 23.3612 22.2827 23.6163C22.0276 23.8723 21.7111 24.0003 21.3333 24.0003Z" fill="#061C3D"/>
</g>
</g>
</svg>
