<svg width="30" height="26" viewBox="0 0 30 26" fill="none" xmlns="http://www.w3.org/2000/svg">
<g id="Group">
<path id="Vector" d="M24.5651 25.1809C24.5455 25.1731 24.5265 25.1646 24.5141 25.1594C24.7147 25.0974 24.9204 25.0289 25.1295 24.9689C25.8846 24.7524 26.5895 24.4308 27.2225 23.9651C28.0632 23.348 28.6793 22.5483 29.113 21.6045C29.3286 21.1355 29.4762 20.6437 29.6298 20.1532C29.6552 20.0717 29.6637 19.9829 29.6644 19.8968C29.6676 19.36 29.6683 18.8232 29.6637 18.287C29.6624 18.1807 29.6454 18.0705 29.6121 17.97C29.4789 17.5669 29.3554 17.1592 29.194 16.7672C28.6708 15.494 27.8111 14.5058 26.6182 13.8137C25.6861 13.273 24.6794 13.0088 23.5982 13.0062C22.7399 13.0042 21.9266 13.1915 21.1368 13.5104C21.0662 13.5391 20.995 13.5652 20.9147 13.5959C20.8944 13.5672 20.8702 13.5359 20.8493 13.5026C20.5234 12.9873 20.1994 12.4713 19.8714 11.9573C19.7734 11.8041 19.6558 11.6664 19.4971 11.5666C19.3338 11.4642 19.162 11.4597 18.9895 11.5236C18.8889 11.5608 18.7935 11.6175 18.7054 11.6795C18.4656 11.8478 18.3892 12.0819 18.4676 12.365C18.5251 12.5718 18.6374 12.7505 18.7485 12.9299C19.0326 13.3884 19.3162 13.847 19.5997 14.3049C19.618 14.3349 19.6382 14.3636 19.6611 14.3975C19.5925 14.4666 19.5258 14.5364 19.4553 14.6036C19.0137 15.0256 18.6289 15.4933 18.3167 16.0191C17.8816 16.7516 17.619 17.5402 17.5204 18.3862C17.3688 19.6933 17.619 20.9209 18.2605 22.0657C18.7406 22.9221 19.4024 23.6161 20.2248 24.1562C20.8003 24.5345 21.4236 24.8065 22.0879 24.9865C22.2186 25.0218 22.3453 25.0713 22.474 25.1131C22.5276 25.1307 22.5818 25.145 22.6347 25.16C22.6282 25.1653 22.6184 25.1731 22.6079 25.1809C23.2599 25.1809 23.9118 25.1809 24.5631 25.1809H24.5651ZM21.6777 14.8417C21.709 14.8254 21.7299 14.8137 21.7515 14.8039C22.8209 14.3238 23.9177 14.252 25.0348 14.6075C26.0702 14.9369 26.8893 15.5631 27.4903 16.4646C28.19 17.5147 28.4389 18.6699 28.2233 19.9125C28.0345 20.9985 27.5191 21.9163 26.6823 22.6377C25.5881 23.5802 24.3116 23.939 22.8842 23.7355C21.7632 23.575 20.8115 23.0708 20.0602 22.2255C19.064 21.1042 18.6884 19.7892 18.9268 18.3086C19.0725 17.4032 19.4703 16.6192 20.117 15.9643C20.2111 15.869 20.3143 15.7816 20.4175 15.6864C20.4469 15.7184 20.4705 15.7373 20.4868 15.7614C20.6285 15.9728 20.7749 16.1815 20.9101 16.3967C21.4876 17.3171 22.0605 18.2394 22.6373 19.1598C22.7366 19.3176 22.8411 19.4735 22.9548 19.6209C23.0547 19.7507 23.1906 19.8381 23.3565 19.8629C23.6263 19.9034 23.836 19.7801 24.0196 19.604C24.194 19.4363 24.26 19.2283 24.1907 18.996C24.1522 18.8656 24.0941 18.7364 24.0229 18.6203C23.4343 17.6661 22.8405 16.7144 22.2486 15.7621C22.0598 15.4588 21.8723 15.1541 21.6783 14.8411L21.6777 14.8417Z" fill="#061C3D"/>
<path id="Vector_2" d="M7.03071 25.1802C7.00916 25.171 6.9876 25.1619 6.95428 25.1482C7.09865 25.1195 7.23192 25.0941 7.36518 25.0673C8.35029 24.8658 9.28053 24.5344 10.0958 23.9265C10.9496 23.2899 11.5911 22.4856 12.0255 21.5157C12.3907 20.7003 12.5671 19.8439 12.5664 18.9529C12.5651 17.4559 12.0752 16.1409 11.0718 15.0216C10.3695 14.2389 9.51962 13.6753 8.53059 13.3192C8.07723 13.1561 7.61146 13.0485 7.13197 12.9943C6.56429 12.9298 5.99988 12.9474 5.43742 13.0433C4.15639 13.2618 3.05435 13.8319 2.1424 14.7509C1.25005 15.6498 0.699358 16.7306 0.478558 17.9784C0.457653 18.0951 0.419765 18.2093 0.39886 18.326C0.37273 18.4715 0.341372 18.6183 0.3368 18.765C0.325695 19.1349 0.33876 19.4988 0.439362 19.8654C0.550415 20.2685 0.612473 20.686 0.758802 21.08C1.34543 22.6611 2.39652 23.8215 3.92317 24.5488C4.41312 24.7823 4.93246 24.9238 5.45833 25.0484C5.59224 25.0804 5.72551 25.1149 5.86465 25.1495C5.84897 25.1612 5.83722 25.1704 5.8248 25.1795H7.03071V25.1802ZM6.45846 23.721C3.85524 23.7269 1.77854 21.6455 1.77004 19.0246C1.76155 16.486 3.74876 14.323 6.47871 14.3256C9.1845 14.3283 11.1586 16.4788 11.1933 18.9385C11.2311 21.6292 9.06299 23.7393 6.45846 23.721Z" fill="#061C3D"/>
<path id="Vector_3" d="M15.5163 7.67238C15.4751 7.67565 15.4379 7.68021 15.4006 7.68086C14.8846 7.68739 14.3691 7.69195 13.8531 7.70043C13.4298 7.70761 13.0065 7.72326 12.5831 7.72848C12.0129 7.735 11.4432 7.73696 10.8729 7.73761C10.5548 7.73761 10.2451 7.7774 9.98645 7.97635C9.84339 8.08593 9.72254 8.22421 9.59385 8.35206C9.27375 8.66906 8.95366 8.98541 8.63618 9.30438C8.30693 9.63573 8.07829 10.0232 8.00186 10.4883C7.91171 11.0381 8.05674 11.5228 8.42387 11.9428C8.65969 12.2129 8.95235 12.4053 9.26265 12.5775C10.3856 13.2017 11.5059 13.8299 12.6289 14.4554C12.8725 14.5911 13.1201 14.7209 13.3657 14.8533C13.7054 15.0359 13.857 15.3177 13.8518 15.7038C13.8374 16.7795 13.8309 17.8557 13.8289 18.9313C13.8283 19.3703 13.8407 19.8093 13.8616 20.2476C13.874 20.5066 13.9498 20.7551 14.0909 20.9762C14.3672 21.4073 14.7807 21.5587 15.2719 21.528C15.4078 21.5195 15.5476 21.4902 15.6763 21.4445C16.0624 21.3082 16.2819 21.0134 16.3792 20.6311C16.4295 20.4335 16.4596 20.2254 16.4602 20.0219C16.4661 18.3495 16.4622 16.677 16.4635 15.0046C16.4635 14.6602 16.4707 14.3165 16.4792 13.9721C16.4981 13.1861 16.1512 12.6134 15.4614 12.2494C14.7618 11.8802 14.0562 11.5215 13.3527 11.1588C13.16 11.0596 12.9673 10.9605 12.7746 10.8607C12.7654 10.8561 12.7582 10.8477 12.7419 10.8346C12.7628 10.8111 12.7804 10.7883 12.8 10.7681C13.5382 10.0023 14.2744 9.23589 15.0152 8.47273C15.2073 8.27509 15.3575 8.05397 15.4634 7.80154C15.4803 7.76044 15.5025 7.72131 15.5274 7.67173C15.6267 7.81197 15.7207 7.94112 15.8109 8.07288C16.2433 8.70624 16.6758 9.33895 17.1063 9.97426C17.4212 10.4393 17.8503 10.6846 18.42 10.6826C19.7454 10.6768 21.0702 10.6768 22.3957 10.6722C22.5995 10.6715 22.8007 10.6448 22.9947 10.5731C23.3919 10.425 23.5827 10.1099 23.5193 9.69183C23.5049 9.59594 23.484 9.49941 23.4494 9.40939C23.3344 9.11065 23.0895 8.96911 22.7909 8.9378C22.5009 8.90714 22.2063 8.91627 21.9136 8.90845C21.8104 8.90584 21.7078 8.89931 21.6046 8.89997C20.9886 8.90323 20.3726 8.9091 19.7566 8.91171C19.5612 8.91236 19.3653 8.91432 19.1706 8.89931C18.8531 8.87453 18.6245 8.6945 18.4585 8.43881C18.2064 8.0507 17.9712 7.65086 17.7197 7.2621C17.2533 6.54069 16.7829 5.82253 16.3093 5.10568C16.1382 4.84673 15.9363 4.61517 15.6828 4.42862C15.0675 3.97594 14.4044 3.97072 13.7564 4.35426C13.5336 4.48602 13.335 4.64974 13.1508 4.83107C12.4283 5.54336 11.7045 6.25434 10.9814 6.96532C10.9663 6.98032 10.9533 6.99663 10.9278 7.02533C10.9703 7.02728 10.9983 7.03055 11.0264 7.03055C12.1592 7.03055 13.2913 7.03055 14.424 7.03055C14.6056 7.03055 14.7879 7.0175 14.9682 7.03315C15.3209 7.06381 15.5502 7.3332 15.5189 7.67173L15.5163 7.67238Z" fill="#061C3D"/>
<path id="Vector_4" d="M18.04 5.15497C19.37 5.14388 20.3551 4.06698 20.31 2.78852C20.2682 1.6079 19.2505 0.576654 17.9642 0.604049C16.7975 0.629488 15.7392 1.70639 15.7542 2.88179C15.7699 4.12307 16.819 5.16606 18.0406 5.15432L18.04 5.15497Z" fill="#061C3D"/>
<path id="Vector_5" d="M10.8793 2.16241L12.1759 3.45708C12.4941 3.77472 12.4941 4.28973 12.1759 4.60738L8.49534 8.28244C8.17722 8.60009 7.66144 8.60009 7.34331 8.28245L6.0467 6.98778C5.72857 6.67013 5.72857 6.15512 6.0467 5.83748L9.72729 2.16241C10.0454 1.84476 10.5612 1.84476 10.8793 2.16241Z" fill="#061C3D"/>
</g>
</svg>
