<svg width="32" height="18" viewBox="0 0 32 18" fill="none" xmlns="http://www.w3.org/2000/svg">
<g id="Frame" clip-path="url(#clip0_714_1849)">
<g id="Late">
<g id="Group 10847">
<g id="Group 13164">
<g id="Group 13164_2">
<mask id="mask0_714_1849" style="mask-type:luminance" maskUnits="userSpaceOnUse" x="0" y="0" width="32" height="18">
<path id="clip-path" d="M31.5 0H0.5V18H31.5V0Z" fill="white"/>
</mask>
<g mask="url(#mask0_714_1849)">
<g id="Group">
<path id="Path 9616" d="M31.5027 1.41015C31.3223 2.25977 31.1354 3.1085 30.9632 3.96082C30.5894 5.80989 30.2286 7.66166 29.8531 9.51163C29.8195 9.81898 29.6791 10.1002 29.4613 10.2964C29.2435 10.4927 28.9651 10.5889 28.6843 10.5649C28.6149 10.5649 28.5456 10.5739 28.4329 10.582C28.4803 10.7237 28.5145 10.8439 28.5603 10.9597C29.2304 12.7047 29.9127 14.4443 30.5632 16.1983C30.6755 16.5132 30.7117 16.8547 30.6685 17.1896C30.6228 17.4083 30.5134 17.6046 30.3569 17.7487C30.2005 17.8928 30.0056 17.9769 29.8017 17.9881C29.5787 18.017 29.3532 17.9643 29.1601 17.8384C28.967 17.7124 28.817 17.52 28.7333 17.291C28.4549 16.6029 28.197 15.9049 27.9301 15.2114C27.5498 14.2245 27.1645 13.2376 26.794 12.2399C26.7748 12.1566 26.7291 12.0837 26.6651 12.0343C26.6011 11.9849 26.5232 11.9624 26.4454 11.9708C25.5272 11.9816 24.6081 11.9824 23.6899 11.9708C23.6066 11.9614 23.5231 11.9858 23.455 12.0393C23.3869 12.0928 23.339 12.1718 23.3201 12.2615C22.7031 13.8871 22.0737 15.5065 21.4542 17.1304C21.3946 17.3434 21.2839 17.5347 21.1336 17.6843C20.9834 17.8338 20.7992 17.936 20.6005 17.9801C20.4209 18.0206 20.2346 18.0049 20.0628 17.9348C19.8909 17.8647 19.7404 17.743 19.6284 17.5835C19.4988 17.4183 19.4163 17.215 19.391 16.9987C19.3658 16.7824 19.3989 16.5627 19.4863 16.3669C19.8672 15.3663 20.2511 14.3662 20.638 13.3668C20.9514 12.5504 21.2643 11.7336 21.5767 10.9166C21.6142 10.8179 21.6477 10.7174 21.6926 10.5909C21.5138 10.5766 21.3661 10.5703 21.2159 10.5524C20.9619 10.5296 20.7249 10.4024 20.5524 10.1963C20.3798 9.9901 20.2842 9.72003 20.2846 9.43986C20.2786 9.15392 20.371 8.87603 20.5434 8.66178C20.7158 8.44753 20.9554 8.31271 21.2143 8.2843C21.325 8.27406 21.4362 8.27076 21.5473 8.27443H27.9636C28.135 7.42391 28.3048 6.58415 28.4737 5.7444C28.7961 4.14384 29.1136 2.54149 29.4409 0.941826C29.479 0.698504 29.5887 0.475684 29.7533 0.307716C29.918 0.139748 30.1283 0.0359608 30.3518 0.012354C30.5849 -0.0150753 30.8195 0.0448922 31.0176 0.182517C31.2157 0.320143 31.3657 0.527342 31.4431 0.770466C31.4609 0.807905 31.4811 0.843886 31.5035 0.878127L31.5027 1.41015Z" fill="#061C3D"/>
<path id="Path 9617" d="M3.56715 10.6055C3.32443 10.5893 3.0835 10.5494 2.84724 10.4861C2.66065 10.4132 2.49585 10.2853 2.37078 10.1165C2.24571 9.94775 2.16518 9.74447 2.13795 9.52885C1.77228 7.67828 1.40362 5.8286 1.03197 3.97983C0.863015 3.14007 0.690793 2.29314 0.527549 1.448C0.491079 1.29762 0.48271 1.14067 0.502948 0.986634C0.523185 0.832598 0.571609 0.684666 0.645297 0.551768C0.718984 0.418871 0.816407 0.303764 0.931685 0.213396C1.04696 0.123028 1.1777 0.0592733 1.31602 0.0259796C1.45231 -0.00595929 1.59307 -0.00731325 1.72986 0.021999C1.86664 0.0513112 1.99663 0.110686 2.11203 0.196562C2.22743 0.282438 2.32587 0.393047 2.40143 0.521756C2.47699 0.650465 2.52813 0.794622 2.55177 0.945583C3.02191 3.24683 3.479 5.55167 3.93935 7.85382C3.96546 7.98212 3.99485 8.10952 4.02994 8.26832H4.39316C6.45167 8.26832 8.51017 8.26832 10.5687 8.26832C10.7074 8.25383 10.8473 8.27017 10.9801 8.31636C11.1129 8.36255 11.2359 8.43765 11.3418 8.53719C11.4476 8.63672 11.5342 8.75866 11.5963 8.89573C11.6584 9.03281 11.6948 9.18221 11.7032 9.33506C11.7155 9.48179 11.7011 9.62975 11.6609 9.77032C11.6207 9.91088 11.5554 10.0412 11.4688 10.1538C11.3823 10.2664 11.2763 10.3589 11.1569 10.4259C11.0375 10.493 10.9072 10.5333 10.7735 10.5444C10.625 10.5624 10.4756 10.5696 10.292 10.5848C10.4732 11.0603 10.643 11.5062 10.8135 11.9521C11.3735 13.4109 11.9383 14.8679 12.4925 16.3294C12.5551 16.4629 12.5929 16.6086 12.6039 16.7583C12.6149 16.9079 12.5988 17.0584 12.5565 17.2012C12.5142 17.3439 12.4466 17.4761 12.3576 17.5899C12.2686 17.7038 12.1599 17.7971 12.0379 17.8645C11.8127 17.9956 11.5508 18.0281 11.3047 17.9556C11.0586 17.883 10.8467 17.7107 10.7115 17.4733C10.578 17.2138 10.4618 16.9439 10.3638 16.6659C9.79653 15.1981 9.22926 13.7312 8.67505 12.2572C8.65254 12.1632 8.5995 12.0816 8.52596 12.0277C8.45242 11.9738 8.36347 11.9514 8.27592 11.9647C7.37808 11.9781 6.48024 11.9808 5.58239 11.9647C5.49495 11.9534 5.40679 11.9778 5.3346 12.0332C5.2624 12.0886 5.21117 12.1711 5.19061 12.2652C4.56647 13.9118 3.93526 15.5549 3.29698 17.1943C3.21565 17.4715 3.04198 17.7045 2.81081 17.8468C2.57965 17.9891 2.30809 18.03 2.05061 17.9614C1.9004 17.9206 1.76037 17.8434 1.64077 17.7355C1.52116 17.6275 1.42499 17.4916 1.35928 17.3376C1.29358 17.1836 1.25999 17.0155 1.26098 16.8454C1.26197 16.6753 1.2975 16.5076 1.36499 16.3545C1.80248 15.1882 2.25712 14.0282 2.70441 12.8654C2.99008 12.1217 3.27576 11.3779 3.57123 10.6055" fill="#061C3D"/>
<path id="Path 9618" d="M14.9403 15.7169V5.81933H14.573C12.8976 5.81933 11.2219 5.81933 9.54593 5.81933C9.37491 5.82635 9.20382 5.80763 9.03742 5.7637C8.8082 5.68823 8.61013 5.5272 8.47737 5.30838C8.3446 5.08957 8.28548 4.82668 8.31018 4.56508C8.33697 4.29805 8.44794 4.04975 8.62387 3.86325C8.7998 3.67676 9.02956 3.56385 9.27331 3.54409C9.35493 3.53691 9.43656 3.53871 9.51818 3.53871C13.8387 3.53871 18.1592 3.53871 22.4797 3.53871C22.6605 3.53351 22.8408 3.56078 23.0135 3.61945C23.2329 3.70973 23.4176 3.87954 23.5373 4.10082C23.657 4.3221 23.7044 4.58163 23.6718 4.83655C23.6392 5.09147 23.5284 5.32654 23.3578 5.50294C23.1873 5.67933 22.9671 5.78651 22.7336 5.80677C22.5026 5.82471 22.27 5.81753 22.0373 5.81753H17.0543V15.7169C17.2649 15.7169 17.4624 15.708 17.6632 15.7169C17.9338 15.7242 18.1907 15.8491 18.3776 16.0642C18.5646 16.2793 18.6663 16.567 18.6607 16.8644C18.6631 17.1568 18.5604 17.4384 18.375 17.648C18.1897 17.8577 17.9365 17.9784 17.6706 17.9841C16.5502 18.0009 15.4298 18.0009 14.3094 17.9841C14.0437 17.9761 13.7916 17.853 13.6081 17.6416C13.4247 17.4302 13.3247 17.1476 13.3299 16.8555C13.3262 16.558 13.43 16.2711 13.6185 16.0576C13.807 15.8442 14.0649 15.7217 14.3355 15.7169C14.5257 15.708 14.7167 15.7169 14.9444 15.7169" fill="#061C3D"/>
</g>
</g>
</g>
</g>
</g>
</g>
</g>
<defs>
<clipPath id="clip0_714_1849">
<rect width="31" height="18" fill="white" transform="translate(0.5)"/>
</clipPath>
</defs>
</svg>
