<svg width="44" height="44" viewBox="0 0 44 44" fill="none" xmlns="http://www.w3.org/2000/svg">
<rect width="44" height="44" rx="5" fill="#34E0A4" fill-opacity="0.1"/>
<path d="M18.3876 23.8253C18.1106 23.9363 17.7718 24 17.4161 24C16.935 24 16.4984 23.8839 16.2004 23.7051C15.8974 23.5233 15.833 23.3432 15.833 23.2501C15.833 23.1783 15.867 23.0633 16.0181 22.9276C16.1717 22.7897 16.417 22.6606 16.7396 22.5804C17.0593 22.5009 17.4172 22.4792 17.7635 22.5205C18.1112 22.562 18.4121 22.6628 18.6322 22.7949C18.8553 22.9287 18.9532 23.0675 18.985 23.1635C19.0113 23.2428 19.0071 23.3321 18.9296 23.4443C18.8434 23.5692 18.6685 23.7127 18.3876 23.8253Z" fill="black" stroke="black"/>
<path d="M28.1663 23.25C28.1663 23.4025 28.0851 23.5787 27.8782 23.7339C27.6711 23.8892 27.3622 24 26.9997 24C26.6372 24 26.3282 23.8892 26.1212 23.7339C25.9143 23.5787 25.833 23.4025 25.833 23.25C25.833 23.0975 25.9143 22.9213 26.1212 22.7661C26.3282 22.6108 26.6372 22.5 26.9997 22.5C27.3622 22.5 27.6711 22.6108 27.8782 22.7661C28.0851 22.9213 28.1663 23.0975 28.1663 23.25Z" fill="black" stroke="black"/>
<path d="M21.9988 17.1522C20.7527 17.1509 19.5186 17.3956 18.3685 17.872L17.2036 18.3545L18.3826 18.8014C20.1961 19.4888 21.5005 21.0679 21.5005 22.832H22.0005H22.5005C22.5005 21.0681 23.8044 19.4892 25.6177 18.8016L26.7964 18.3546L25.6317 17.8722C24.4809 17.3954 23.2459 17.1507 21.9988 17.1522ZM21.9988 17.1522C21.999 17.1522 21.9992 17.1522 21.9994 17.1522L21.9989 17.6522L21.9983 17.1522C21.9985 17.1522 21.9986 17.1522 21.9988 17.1522ZM18.5599 18.3339L18.7371 17.8664C18.9087 17.9314 19.0775 18.0038 19.2426 18.0831C19.0121 18.1573 18.7843 18.2409 18.5599 18.3339ZM18.5599 18.3339L18.7512 18.7958C18.9009 18.7338 19.0522 18.6762 19.2049 18.623C18.9969 18.5146 18.7814 18.4179 18.5599 18.3339ZM25.4404 18.3341C25.2189 18.4181 25.0034 18.5148 24.7955 18.6233C24.9481 18.6765 25.0994 18.7341 25.249 18.7961L25.4404 18.3341ZM25.4404 18.3341L25.2631 17.8666C25.0915 17.9317 24.9228 18.004 24.7578 18.0833C24.9883 18.1576 25.216 18.2412 25.4404 18.3341ZM13.3378 22.9207L13.3378 22.92C13.337 22.3588 13.4547 21.8036 13.6835 21.2899C13.9123 20.7761 14.2471 20.3152 14.6667 19.9367L15.0432 19.5972L14.6984 19.2255L13.9786 18.4493H16.1649H16.3178L16.4445 18.3638C18.0836 17.2584 20.0208 16.667 22.0043 16.667C23.9878 16.667 25.925 17.2584 27.5641 18.3638L27.6908 18.4493H27.8437H30.0207L29.3009 19.2255L28.9561 19.5973L29.3328 19.9368C29.7525 20.3152 30.0874 20.7761 30.3163 21.2898C30.5452 21.8034 30.6631 22.3587 30.6625 22.9199V22.9205C30.6625 25.1468 28.8384 26.96 26.58 26.96L26.5793 26.96C25.5501 26.9615 24.5594 26.5763 23.8065 25.8832L23.4401 25.5459L23.1013 25.911L21.9997 27.0984L20.8979 25.9102L20.559 25.5448L20.1925 25.8824C19.4396 26.5761 18.4485 26.9616 17.4189 26.9602H17.4182C15.1603 26.9602 13.3378 25.1477 13.3378 22.9207ZM29.5714 24.907C29.9676 24.3195 30.1793 23.6282 30.1793 22.9207C30.1793 21.9718 29.7989 21.0627 29.1233 20.3931C28.4478 19.7237 27.5327 19.3484 26.5793 19.3484C25.8683 19.3484 25.1729 19.5574 24.581 19.9493C23.9891 20.3413 23.5271 20.8989 23.254 21.5522C22.981 22.2055 22.9095 22.9246 23.0487 23.6184C23.188 24.3123 23.5316 24.9489 24.0354 25.4482C24.5391 25.9475 25.1804 26.287 25.8779 26.4245C26.5753 26.562 27.2983 26.4914 27.9555 26.2216C28.6128 25.9518 29.1753 25.4946 29.5714 24.907ZM19.4165 19.9493C18.8246 19.5574 18.1292 19.3484 17.4182 19.3484C16.4649 19.3484 15.5497 19.7237 14.8742 20.3931C14.1986 21.0627 13.8183 21.9718 13.8183 22.9207C13.8183 23.6282 14.03 24.3195 14.4261 24.907C14.8222 25.4946 15.3847 25.9518 16.042 26.2216C16.6993 26.4914 17.4222 26.562 18.1197 26.4245C18.8171 26.287 19.4584 25.9475 19.9622 25.4482C20.466 24.9489 20.8096 24.3123 20.9488 23.6184C21.0881 22.9246 21.0166 22.2055 20.7435 21.5522C20.4705 20.8989 20.0084 20.3413 19.4165 19.9493Z" fill="black" stroke="black"/>
</svg>
