<svg width="24" height="17" viewBox="0 0 24 17" fill="none" xmlns="http://www.w3.org/2000/svg">
    <path
        d="M23.5871 16.0133H0.459881C0.231811 16.0133 0.046875 15.8248 0.046875 15.5923V0.438537C0.046875 0.206075 0.231811 0.0175781 0.459881 0.0175781H23.5871C23.8152 0.0175781 24.0001 0.206075 24.0001 0.438537V15.5923C24.0001 15.8248 23.8151 16.0133 23.5871 16.0133Z"
        fill="#41479B" />
    <path
        d="M24.0002 0.438537C24.0002 0.206075 23.8152 0.0175781 23.5871 0.0175781H21.7394L14.0884 5.12683V0.0175781H9.95853V5.12683L2.30756 0.0175781H0.459882C0.231811 0.0175781 0.046875 0.206075 0.046875 0.438537V1.52722L6.61105 5.91072H0.046875V10.1201H6.61105L0.046875 14.5037V15.5923C0.046875 15.8248 0.231811 16.0133 0.459882 16.0133H2.30761L9.95862 10.9041V16.0133H14.0885V10.9041L21.7395 16.0133H23.5872C23.8153 16.0133 24.0002 15.8248 24.0002 15.5923V14.5037L17.4361 10.1202H24.0002V5.91077H17.436L24.0002 1.52722V0.438537Z"
        fill="#F5F5F5" />
    <path
        d="M24.0001 6.75264H13.2625V0.0175781H10.7845V6.75264H0.046875V9.27825H10.7845V16.0133H13.2625V9.27825H24.0001V6.75264Z"
        fill="#FF4B55" />
    <path
        d="M8.4187 10.1201L0.0585938 15.6514C0.0878334 15.8547 0.252277 16.0133 0.459855 16.0133H1.02869L9.93579 10.1202H8.4187V10.1201Z"
        fill="#FF4B55" />
    <path
        d="M16.2524 10.1201H14.7354L23.6295 16.0046C23.8368 15.9821 24.0004 15.8096 24.0004 15.5924V15.2463L16.2524 10.1201Z"
        fill="#FF4B55" />
    <path
        d="M0.046875 0.903179L7.61547 5.91071H9.13257L0.287483 0.0585938C0.146196 0.125495 0.046875 0.269263 0.046875 0.438495V0.903179Z"
        fill="#FF4B55" />
    <path
        d="M15.605 5.91077L23.9852 0.366107C23.9504 0.16955 23.7895 0.0175781 23.5866 0.0175781H22.9949L14.0879 5.91077H15.605Z"
        fill="#FF4B55" />
</svg>