<svg width="35" height="35" viewBox="0 0 35 35" fill="none" xmlns="http://www.w3.org/2000/svg">
    <g clip-path="url(#clip0_2_38949)">
        <path
            d="M8.04794 27.3127L8.02037 10.2796C8.02037 9.59991 8.42012 9.04432 8.9191 9.04156C9.37536 9.04156 9.74891 9.50065 9.81369 10.099L9.83161 23.8936C9.83575 24.5774 10.2396 25.1289 10.7345 25.1289C11.2142 25.1289 11.6029 24.6188 11.6346 23.9764V23.9598C11.6346 23.9378 11.6373 23.9143 11.6373 23.8909L11.6167 10.2079C11.6373 9.5558 12.0316 9.03743 12.5113 9.03605C12.9234 9.03605 13.2694 9.41655 13.3783 9.93492L13.3714 7.08665H13.3604C13.3521 4.40658 15.0296 1.29361 17.3895 0.0183689C13.0957 -0.0712427 8.76885 1.45767 5.39587 4.63543C-1.44107 11.0723 -1.76362 21.8326 4.67082 28.6706C6.32906 30.4339 8.27814 31.7602 10.3775 32.6535C9.17549 31.2942 8.49731 29.6674 8.14443 28.1881C8.10446 28.0158 8.0507 27.5098 8.0507 27.3113"
            fill="#70AC44" />
        <path
            d="M25.9475 6.84406L25.9764 23.8744C25.9764 24.5582 25.5726 25.111 25.0777 25.111C24.6242 25.111 24.2507 24.6519 24.1859 24.0564L24.1652 10.2617C24.1624 9.57652 23.7572 9.02644 23.261 9.02369C22.7854 9.02782 22.3939 9.54068 22.365 10.1831V10.1955C22.365 10.219 22.3622 10.2424 22.365 10.2645L22.3843 23.9488C22.3595 24.6023 21.9666 25.1179 21.4869 25.1207C21.0734 25.1207 20.7274 24.7402 20.6185 24.2232L20.6378 27.0411L20.642 27.0701C20.6447 29.6647 19.0761 32.6673 16.832 34.017C21.0858 34.0694 25.3603 32.5419 28.7057 29.3945C35.5385 22.9576 35.8597 12.1973 29.4252 5.35926C27.6733 3.50224 25.6015 2.12498 23.3754 1.23438C24.7111 2.61301 25.6401 4.55965 25.8579 6.2995C25.9144 6.46217 25.9489 6.64691 25.9489 6.84544"
            fill="#B0CD99" />
        <path
            d="M17.3868 0.0195312C15.0283 1.29477 13.3508 4.40774 13.3535 7.08919L13.3604 7.1016L13.3756 9.93608L13.399 23.8907C13.4018 24.5731 13.807 25.1273 14.3019 25.1232C14.6561 25.1232 14.9594 24.8406 15.1055 24.4339C15.1124 24.427 15.1138 24.4242 15.1138 24.4173C15.1317 24.3608 15.1496 24.3015 15.162 24.2395C15.162 24.2215 15.1703 24.2078 15.1744 24.1898C15.1827 24.1388 15.1868 24.0837 15.1923 24.0285C15.1951 23.983 15.202 23.9403 15.2006 23.8948L15.1909 10.4641L15.1951 10.1953C15.2158 9.72515 15.4335 9.32673 15.7299 9.14612C15.7396 9.14199 15.7437 9.13509 15.7492 9.13234C15.7602 9.1282 15.7644 9.12682 15.774 9.12131C15.8733 9.06616 15.9849 9.03583 16.1007 9.03445C16.5253 9.03445 16.8795 9.43977 16.9788 9.98296L16.9884 10.0519C16.9967 10.1236 16.9898 10.2022 16.9953 10.2752L17.016 24.1016C17.0904 24.6793 17.4584 25.1218 17.9023 25.1177C18.0167 25.1177 18.127 25.0859 18.2276 25.0336C18.2317 25.0336 18.2372 25.0336 18.2414 25.0322C18.2497 25.0239 18.2552 25.0156 18.2662 25.0087C18.5763 24.8157 18.7914 24.3842 18.7914 23.8865L18.7872 10.3704L18.7941 10.1856C18.7941 10.1663 18.7983 10.1456 18.801 10.1277C18.8038 10.0739 18.8107 10.0174 18.8217 9.96779C18.8231 9.95125 18.8286 9.93608 18.83 9.91954C18.8424 9.8575 18.8589 9.79408 18.8796 9.73618L18.8851 9.72377C19.0285 9.31018 19.3345 9.0248 19.6915 9.02756C20.1891 9.0248 20.593 9.58039 20.593 10.2614L20.615 24.2229C20.7253 24.7385 21.0713 25.1177 21.4834 25.119C21.9631 25.1163 22.3573 24.6007 22.3808 23.9472L22.3615 10.2642C22.3587 10.2408 22.3615 10.2173 22.3615 10.1925V10.1815C22.3918 9.53628 22.7819 9.02618 23.2574 9.02205C23.755 9.02618 24.1589 9.57626 24.1617 10.2601L24.1837 24.0547C24.2499 24.6503 24.6207 25.1121 25.0756 25.1094C25.5704 25.108 25.9743 24.5566 25.9743 23.8727L25.9453 6.83966C25.9453 6.64251 25.9316 6.43848 25.904 6.24684C25.6421 4.51252 24.7089 2.60586 23.3718 1.2286C21.4586 0.46621 19.4254 0.0567545 17.3868 0.0195312Z"
            fill="#2D5E3F" />
        <path
            d="M16.8296 34.0139C19.188 32.7401 20.6478 29.7319 20.645 27.049L20.6381 27.0352L20.6216 24.2021L20.6009 10.2476C20.5981 9.56513 20.1915 9.01091 19.6967 9.01505C19.3424 9.01505 19.0392 9.29491 18.893 9.70437C18.8862 9.70851 18.8862 9.71402 18.8862 9.71954C18.8669 9.77606 18.8503 9.83534 18.8365 9.89738C18.8365 9.9153 18.831 9.92909 18.8255 9.94701C18.8172 9.9994 18.8131 10.0532 18.8076 10.1097C18.8048 10.1552 18.7966 10.1979 18.7979 10.2434L18.809 23.6727L18.8048 23.9416C18.7855 24.4117 18.5664 24.8101 18.27 24.9907C18.2604 24.9949 18.2548 25.0004 18.2507 25.0059C18.2383 25.0086 18.2342 25.01 18.2245 25.0169C18.1266 25.0707 18.0136 25.101 17.8992 25.1038C17.476 25.1038 17.1176 24.6985 17.0198 24.1539L17.0101 24.085C17.0032 24.0133 17.0101 23.9347 17.006 23.8616L16.9812 10.0352C16.9095 9.45622 16.5387 9.01367 16.0962 9.01781C15.9805 9.01781 15.8729 9.04952 15.7723 9.10191C15.7654 9.10191 15.7627 9.10191 15.7585 9.10328C15.7489 9.11156 15.7434 9.11983 15.7323 9.12672C15.4222 9.32111 15.2072 9.75124 15.2072 10.2476L15.2113 23.7637L15.203 23.9485C15.203 23.9664 15.1989 23.9885 15.1961 24.005C15.1948 24.0615 15.1879 24.1153 15.1768 24.1663C15.1768 24.1815 15.1699 24.198 15.1672 24.2145C15.1575 24.2752 15.1382 24.3372 15.1189 24.3979L15.1134 24.4089C14.9673 24.8239 14.6627 25.1079 14.3071 25.1065C13.8081 25.1065 13.4056 24.5537 13.4056 23.8713L13.3808 9.90979C13.2732 9.3928 12.9273 9.01505 12.5137 9.01367C12.0341 9.01505 11.6398 9.53204 11.6178 10.1841L11.6357 23.8685C11.6384 23.8919 11.6357 23.9154 11.6357 23.9402V23.9512C11.6054 24.5978 11.2153 25.1079 10.7397 25.1107C10.2435 25.1079 9.83686 24.5578 9.83548 23.874L9.81342 10.0794C9.74726 9.48517 9.37371 9.02194 8.92159 9.02608C8.42674 9.02608 8.02148 9.57754 8.02148 10.2613L8.05043 27.2944C8.05043 27.493 8.06559 27.697 8.09316 27.8886C8.3523 29.6216 9.03875 31.2759 10.3731 32.6532C12.2877 33.4183 14.7895 33.9753 16.8282 34.0125"
            fill="white" />
    </g>
    <defs>
        <clipPath id="clip0_2_38949">
            <rect width="34" height="34" fill="white" transform="translate(0.046875 0.015625)" />
        </clipPath>
    </defs>
</svg>