<svg width="48" height="32" viewBox="0 0 48 32" fill="none" xmlns="http://www.w3.org/2000/svg">
<g id="Payment Method/GooglePay">
<rect x="0.5" y="0.5" width="47" height="31" rx="3.5" fill="white"/>
<g id="Vector">
<path fill-rule="evenodd" clip-rule="evenodd" d="M22.6035 19.9579V15.9219H24.6865C25.5401 15.9219 26.2606 15.6359 26.8479 15.0718L26.9889 14.9288C28.0617 13.7609 27.9912 11.9415 26.8479 10.861C26.2762 10.289 25.4931 9.97914 24.6865 9.99503H21.3427V19.9579H22.6035ZM22.6036 14.6984V11.2185H24.7183C25.1726 11.2185 25.6034 11.3933 25.9245 11.7111C26.6059 12.3785 26.6216 13.4907 25.9637 14.182C25.6425 14.5236 25.1883 14.7143 24.7183 14.6984H22.6036Z" fill="#3C4043"/>
<path fill-rule="evenodd" clip-rule="evenodd" d="M32.87 13.6735C32.3297 13.173 31.5935 12.9187 30.6616 12.9187C29.4635 12.9187 28.5629 13.3637 27.9678 14.2455L29.0798 14.9526C29.487 14.3488 30.043 14.0469 30.7478 14.0469C31.1942 14.0469 31.6249 14.2138 31.9616 14.5157C32.2905 14.8017 32.4785 15.2148 32.4785 15.6518V15.9457C31.9929 15.6756 31.3821 15.5326 30.6303 15.5326C29.7532 15.5326 29.0485 15.7392 28.5238 16.1603C27.9991 16.5813 27.7328 17.1375 27.7328 17.8446C27.7172 18.4881 27.9913 19.0999 28.4768 19.513C28.9701 19.9579 29.5966 20.1804 30.3327 20.1804C31.202 20.1804 31.8911 19.7911 32.4158 19.0125H32.4706V19.9579H33.6766V15.7551C33.6766 14.8732 33.4103 14.174 32.87 13.6735ZM29.4481 18.7026C29.1896 18.5119 29.033 18.2021 29.033 17.8684C29.033 17.495 29.2053 17.1851 29.5421 16.9388C29.8867 16.6926 30.3174 16.5654 30.8265 16.5654C31.5315 16.5575 32.0797 16.7164 32.4713 17.0342C32.4713 17.5744 32.2599 18.0432 31.8447 18.4404C31.4688 18.8218 30.9597 19.0363 30.4271 19.0363C30.0746 19.0442 29.73 18.9251 29.4481 18.7026Z" fill="#3C4043"/>
<path d="M36.3862 22.9531L40.5993 13.1412H39.2288L37.2789 18.0352H37.2554L35.2585 13.1412H33.8881L36.6524 19.5209L35.0862 22.9531H36.3862Z" fill="#3C4043"/>
<path d="M18.2507 15.048C18.2507 14.6587 18.2194 14.2694 18.1568 13.888H12.8395V16.0887H15.8858C15.7605 16.7958 15.3532 17.4314 14.7581 17.8287V19.2587H16.5749C17.6399 18.2656 18.2507 16.7958 18.2507 15.048Z" fill="#4285F4"/>
<path d="M12.8397 20.6412C14.3589 20.6412 15.643 20.1327 16.5749 19.2587L14.7581 17.8287C14.2491 18.1782 13.5993 18.3769 12.8397 18.3769C11.3675 18.3769 10.1223 17.3679 9.67597 16.0172H7.80435V17.495C8.75974 19.4256 10.7097 20.6412 12.8397 20.6412Z" fill="#34A853"/>
<path d="M9.67597 16.0172C9.441 15.3101 9.44121 14.5395 9.67618 13.8245V12.3547H7.80426C6.99754 13.9675 6.99754 15.8743 7.80426 17.4871L9.67597 16.0172Z" fill="#FBBC04"/>
<path d="M12.8397 11.4648C13.6463 11.4489 14.4216 11.7588 15.0011 12.3229L16.6143 10.6862C15.5884 9.71696 14.2415 9.18465 12.8397 9.20054C10.7097 9.20054 8.75965 10.4241 7.80426 12.3547L9.67597 13.8324C10.1223 12.4738 11.3675 11.4648 12.8397 11.4648Z" fill="#EA4335"/>
</g>
<rect x="0.5" y="0.5" width="47" height="31" rx="3.5" stroke="#CDD2D8"/>
</g>
</svg>
