<svg width="25" height="25" viewBox="0 0 25 25" fill="none" xmlns="http://www.w3.org/2000/svg">
    <path
        d="M20.9022 10.3771C20.8854 10.2831 20.803 10.2156 20.7076 10.2156H12.2469C12.1364 10.2156 12.0469 10.3052 12.0469 10.4156V13.6156C12.0469 13.7261 12.1364 13.8156 12.2469 13.8156H17.1332C16.3912 15.9113 14.3972 17.4156 12.0469 17.4156C9.06472 17.4156 6.64687 14.9978 6.64687 12.0156C6.64687 9.03347 9.06472 6.61562 12.0469 6.61562C13.3556 6.61562 14.5521 7.08502 15.4862 7.86023C15.5678 7.92788 15.6878 7.92468 15.7627 7.84978L18.0285 5.58401C18.1085 5.50396 18.1064 5.3733 18.0218 5.298C16.4322 3.88232 14.343 3.01562 12.0469 3.01562C7.07662 3.01562 3.04688 7.04537 3.04688 12.0156C3.04688 16.9859 7.07662 21.0156 12.0469 21.0156C17.0171 21.0156 21.0469 16.9859 21.0469 12.0156C21.0469 11.4686 20.9958 10.9028 20.9022 10.3771Z"
        fill="white" />
</svg>