<svg width="44" height="44" viewBox="0 0 44 44" fill="none" xmlns="http://www.w3.org/2000/svg">
<rect width="44" height="44" rx="5" fill="#FBBC05" fill-opacity="0.1"/>
<mask id="mask0_714_1982" style="mask-type:luminance" maskUnits="userSpaceOnUse" x="12" y="12" width="19" height="20">
<path d="M30.5413 20.333H21.9997V23.8747H26.9163C26.458 26.1247 24.5413 27.4163 21.9997 27.4163C18.9997 27.4163 16.583 24.9997 16.583 21.9997C16.583 18.9997 18.9997 16.583 21.9997 16.583C23.2913 16.583 24.458 17.0413 25.3747 17.7913L28.0413 15.1247C26.4163 13.708 24.333 12.833 21.9997 12.833C16.9163 12.833 12.833 16.9163 12.833 21.9997C12.833 27.083 16.9163 31.1663 21.9997 31.1663C26.583 31.1663 30.7497 27.833 30.7497 21.9997C30.7497 21.458 30.6663 20.8747 30.5413 20.333Z" fill="white"/>
</mask>
<g mask="url(#mask0_714_1982)">
<path d="M12 27.4163V16.583L19.0833 21.9997L12 27.4163Z" fill="#FBBC05"/>
</g>
<mask id="mask1_714_1982" style="mask-type:luminance" maskUnits="userSpaceOnUse" x="12" y="12" width="19" height="20">
<path d="M30.5413 20.333H21.9997V23.8747H26.9163C26.458 26.1247 24.5413 27.4163 21.9997 27.4163C18.9997 27.4163 16.583 24.9997 16.583 21.9997C16.583 18.9997 18.9997 16.583 21.9997 16.583C23.2913 16.583 24.458 17.0413 25.3747 17.7913L28.0413 15.1247C26.4163 13.708 24.333 12.833 21.9997 12.833C16.9163 12.833 12.833 16.9163 12.833 21.9997C12.833 27.083 16.9163 31.1663 21.9997 31.1663C26.583 31.1663 30.7497 27.833 30.7497 21.9997C30.7497 21.458 30.6663 20.8747 30.5413 20.333Z" fill="white"/>
</mask>
<g mask="url(#mask1_714_1982)">
<path d="M12 16.5833L19.0833 22L22 19.4583L32 17.8333V12H12V16.5833Z" fill="#EA4335"/>
</g>
<mask id="mask2_714_1982" style="mask-type:luminance" maskUnits="userSpaceOnUse" x="12" y="12" width="19" height="20">
<path d="M30.5413 20.333H21.9997V23.8747H26.9163C26.458 26.1247 24.5413 27.4163 21.9997 27.4163C18.9997 27.4163 16.583 24.9997 16.583 21.9997C16.583 18.9997 18.9997 16.583 21.9997 16.583C23.2913 16.583 24.458 17.0413 25.3747 17.7913L28.0413 15.1247C26.4163 13.708 24.333 12.833 21.9997 12.833C16.9163 12.833 12.833 16.9163 12.833 21.9997C12.833 27.083 16.9163 31.1663 21.9997 31.1663C26.583 31.1663 30.7497 27.833 30.7497 21.9997C30.7497 21.458 30.6663 20.8747 30.5413 20.333Z" fill="white"/>
</mask>
<g mask="url(#mask2_714_1982)">
<path d="M12 27.4167L24.5 17.8333L27.7917 18.25L32 12V32H12V27.4167Z" fill="#34A853"/>
</g>
<mask id="mask3_714_1982" style="mask-type:luminance" maskUnits="userSpaceOnUse" x="12" y="12" width="19" height="20">
<path d="M30.5413 20.333H21.9997V23.8747H26.9163C26.458 26.1247 24.5413 27.4163 21.9997 27.4163C18.9997 27.4163 16.583 24.9997 16.583 21.9997C16.583 18.9997 18.9997 16.583 21.9997 16.583C23.2913 16.583 24.458 17.0413 25.3747 17.7913L28.0413 15.1247C26.4163 13.708 24.333 12.833 21.9997 12.833C16.9163 12.833 12.833 16.9163 12.833 21.9997C12.833 27.083 16.9163 31.1663 21.9997 31.1663C26.583 31.1663 30.7497 27.833 30.7497 21.9997C30.7497 21.458 30.6663 20.8747 30.5413 20.333Z" fill="white"/>
</mask>
<g mask="url(#mask3_714_1982)">
<path d="M31.9994 31.9997L19.0827 21.9997L17.416 20.7497L31.9994 16.583V31.9997Z" fill="#4285F4"/>
</g>
</svg>
