<svg width="165" height="43" viewBox="0 0 165 43" fill="none" xmlns="http://www.w3.org/2000/svg">
    <g clip-path="url(#clip0_714_2011)">
        <path
            d="M61.8186 12.198L61.6557 11.9892L61.5081 11.7601L61.4114 11.5819L61.3452 11.4343L61.2943 11.2256L61.2434 10.9659L61.2129 10.7063V10.3346L61.2282 10.187L61.2434 10.0597L61.2587 9.91204L61.3554 9.62185L61.3859 9.49457L61.4521 9.34693L61.5183 9.23492L61.5844 9.10764L61.6506 8.96L61.732 8.84799L61.8135 8.72071L61.9916 8.49161L62.0883 8.3796L62.297 8.17086L62.5209 7.9774L62.6482 7.89594L62.9739 7.67193L63.1215 7.59047L63.2487 7.50901L63.493 7.38173L63.6406 7.31555L63.834 7.24936L63.9969 7.18318L64.1598 7.13227L64.3379 7.06608L64.5008 7.01517L64.6484 6.9999L64.7756 6.96935L64.9232 6.95408L65.0708 6.90316L65.2184 6.87262L65.3457 6.85734L65.4932 6.84207L65.6561 6.8268L65.8495 6.81152H66.1905L66.8674 6.86243L67.2237 6.92862L67.3204 6.94389L67.6462 6.99481L67.7938 7.02535L67.9414 7.07626L68.0686 7.12718L68.2162 7.17809L68.3434 7.229L68.4707 7.29518L68.5979 7.3461L68.7455 7.41228L68.9236 7.50901L69.1018 7.62102L69.229 7.70248L69.3563 7.81448L69.5649 7.96213L69.6769 8.05886L69.7736 8.17086L69.855 8.2676L70.0485 8.49161L70.2113 8.75126L70.2775 8.83272L70.3589 8.98036L70.4098 9.10764L70.4607 9.25528L70.5574 9.51493L70.6083 9.66258L70.6236 9.78986L70.6745 10.2277V10.5841L70.6592 10.7928V10.9557L70.6287 11.2459L70.5981 11.3936L70.5472 11.5412L70.5167 11.6685L70.42 11.9587L70.3895 12.086L70.3233 12.2336L70.2571 12.3456L70.191 12.4729L70.1248 12.6205L70.0434 12.7478L69.9619 12.8598L69.8805 12.9871L69.7685 13.1144L69.7024 13.1806L69.5904 13.3079L69.4937 13.4199L69.3817 13.5166L69.285 13.6133L69.173 13.7101L68.9135 13.873L68.6692 14.0206L68.5572 14.0868L68.43 14.153L68.2671 14.2192L68.1399 14.2497L67.8497 14.3465L67.7021 14.377L67.5749 14.4075L67.4273 14.4228L67.1372 14.4381L66.9896 14.4534H66.2465L66.0836 14.4381L65.8902 14.4075L65.6816 14.3566L65.5187 14.3261L65.2286 14.2446L65.0505 14.2141L64.9029 14.2446L64.8367 14.3566L64.7858 14.5043L64.7349 14.6672L64.7044 14.7639L64.6738 14.9421L64.6433 15.0898L64.6127 15.38L64.5822 15.5276L64.4855 15.8178L64.455 15.9654L64.4397 16.1131L64.3888 16.2607L64.3583 16.4084L64.3074 16.556L64.2921 16.7189L64.2259 17.0091L64.175 17.1568L64.1445 17.2841L64.0783 17.4317L64.0274 17.5793L63.9613 17.7066L63.8798 17.8543L63.7526 18.0019L63.5439 18.1139L63.2844 18.1445L63.0095 18.0936L62.8008 17.9815L62.6889 17.8339L62.6736 17.6863L62.7245 17.559L62.7907 17.4113L62.8721 17.2331L62.9383 17.0397L62.9892 16.8768L63.0401 16.6833L63.1062 16.4746L63.2029 16.1844L63.2335 16.0214L63.2844 15.8127L63.3149 15.6345L63.3658 15.4869L63.3963 15.3392L63.4116 15.1916L63.4421 15.0439L63.4727 14.9167L63.5032 14.769L63.5541 14.6214L63.605 14.4279L63.6559 14.2192L63.7221 13.929L63.7526 13.8017L63.7831 13.6235L63.8137 13.542L63.8442 13.3639L63.8748 13.2366L63.9053 13.0889L63.9562 12.9413L63.9867 12.7936L64.0376 12.646L64.0682 12.4373L64.1191 12.2438L64.2158 11.9536L64.3125 11.694L64.3634 11.5463L64.3939 11.3987L64.5059 11.0576L64.572 10.8335L64.6229 10.7368L64.7044 10.5128L64.8163 10.2684L64.8978 10.075L64.9792 9.92732L65.1268 9.68294L65.2082 9.55566L65.2744 9.42838L65.3558 9.31638L65.4525 9.20437L65.6612 8.99563L65.7732 8.8989L66.0328 8.77162L66.1803 8.72071L66.4705 8.65453L66.6333 8.6698L66.7809 8.70035L66.9285 8.78181L67.0252 8.89381L67.0558 9.04146L67.0049 9.15346L66.8776 9.23492L66.7657 9.31638L66.6384 9.39784L66.5417 9.49457L66.3483 9.71858L66.2669 9.83059L66.0073 10.3499L65.9411 10.4619L65.875 10.5892L65.8241 10.7368L65.7935 10.8845L65.7426 11.0321L65.6918 11.2256L65.6256 11.4343L65.5594 11.5819L65.5085 11.7907L65.4576 11.9842L65.4271 12.1318L65.3762 12.2947L65.3609 12.3914L65.31 12.5544L65.2795 12.702L65.2286 12.8496L65.2133 12.9973L65.1981 13.1755L65.2286 13.3231L65.3406 13.4046L65.534 13.4708L65.763 13.5013L65.8597 13.5166L66.0836 13.5471L66.2923 13.5777H66.4552L66.7453 13.5624L66.9387 13.5471L67.1474 13.5166L67.295 13.4657L67.4222 13.4148L67.5698 13.3486L67.7632 13.2671L67.9261 13.1704L68.1857 13.0075L68.2976 12.926L68.3943 12.8293L68.6844 12.4882L68.7964 12.31L68.9236 12.086L69.0203 11.9078L69.1018 11.7449L69.1679 11.5514L69.2188 11.3579L69.2341 11.195L69.2646 11.0016L69.3155 10.7928L69.3308 10.6299L69.3461 10.4823L69.3308 10.3346L69.3155 10.1717L69.285 10.0241L69.2188 9.81531L69.1679 9.62185L69.1018 9.4742L69.0509 9.32656L68.9695 9.19928L68.888 9.08728L68.8066 8.96L68.5979 8.75126L68.5012 8.63925L68.2773 8.44579L68.15 8.36433L68.0228 8.29814L67.8752 8.23196L67.4884 8.06904L67.3408 8.00286L67.1932 7.95194L66.9183 7.88576L66.7555 7.87049L66.6079 7.85521L66.1549 7.83994H66.0073L65.8597 7.85521L65.5696 7.87049L65.422 7.88576L65.2948 7.91631L65.1472 7.94685L64.9996 7.99777L64.7247 8.06395L64.4346 8.16068L64.3074 8.22687L63.9664 8.40506L63.8035 8.48652L63.6559 8.56798L63.2029 8.95491L62.9943 9.16364L62.8976 9.27565L62.8161 9.38765L62.7347 9.51493L62.6685 9.64221L62.6176 9.76949L62.5667 9.91714L62.5158 10.0444L62.4649 10.1921L62.4344 10.4823L62.4497 10.6299V10.7928L62.4802 11.0016L62.5107 11.195L62.5616 11.3427L62.6278 11.4903L62.755 11.75L62.8365 11.8772L62.9026 12.0045L62.8874 12.1318L62.8212 12.2794L62.7245 12.3914L62.6125 12.4882L62.4649 12.5544L62.3173 12.5849L62.1697 12.5544L62.0221 12.4424L61.9102 12.3303L61.7982 12.2031L61.8186 12.198Z"
            fill="black" />
        <path
            d="M75.0358 14.5763V14.7545L74.985 14.9021L74.8577 15.1617L74.7101 15.4061L74.6287 15.5538L74.5625 15.681L74.4658 15.8287L74.4149 15.9254L74.3335 16.0731L74.252 16.2003L74.1706 16.3123L74.0739 16.4396L73.9925 16.5516L73.8296 16.8113L73.5395 17.1524L73.3461 17.3611L73.2341 17.4731L73.1374 17.5851L73.0255 17.6819L72.6692 17.9568L72.5572 18.0383L72.4096 18.1044L72.262 18.1554L72.1348 18.1859L71.8447 18.2521H71.5698L71.3917 18.2368L71.2645 18.1859L71.1168 18.135L70.9896 18.0535L70.8776 17.9568L70.7962 17.8448L70.7148 17.7175L70.6486 17.5699L70.6181 17.4426L70.5875 17.2949L70.5723 17.1473V16.9997L70.6028 16.7095L70.6333 16.5618L70.6842 16.4142L70.7504 16.124L70.8013 15.9967L70.8318 15.8491L70.8827 15.7014L70.9336 15.5741L71.0812 15.1363L71.0965 15.009L71.127 14.8614L71.1779 14.7137L71.2085 14.5661L71.239 14.4388L71.3357 14.1486L71.3866 13.9551L71.4375 13.7464L71.5342 13.4562L71.5647 13.3086L71.5953 13.1966L71.6258 13.0489L71.692 12.886L71.7429 12.7587L71.8396 12.3209L71.8905 12.1732L71.9414 11.9798L72.0075 11.771L72.0584 11.6234L72.1246 11.4961L72.2213 11.4146L72.3689 11.3485L72.4961 11.3332L72.659 11.3485L72.9491 11.379L73.2087 11.4757L73.2901 11.5877V11.7354L73.2596 11.883L73.2087 12.0765L73.1578 12.2852L73.0611 12.5754L73.0305 12.7027L73 12.8504L72.9491 13.0133L72.8982 13.2067L72.7353 13.6904L72.7048 13.838L72.6386 14.0468L72.5267 14.3879L72.4961 14.5355L72.4656 14.6628L72.4351 14.8105L72.3231 15.0854L72.2925 15.233L72.1806 15.6352L72.0839 15.9254L72.0533 16.0731L72.0024 16.2818L71.9515 16.5415L71.921 16.8164L71.9515 17.0607L72.0788 17.2389L72.2569 17.2899L72.4045 17.2746L72.5521 17.2084L72.6641 17.1269L72.7913 17.0302L73.3257 16.4956L73.4224 16.3836L73.5039 16.2716L73.6006 16.1443L73.7634 15.8847L73.8601 15.7727L73.9263 15.676L74.0078 15.5487L74.1045 15.401L74.1706 15.2534L74.2979 14.9785L74.4913 14.5915L74.5727 14.4643L74.7203 14.3828L74.929 14.4133L75.0562 14.5763H75.0358ZM72.43 9.60728L72.5114 9.48L72.6386 9.368L72.7659 9.28654L72.9287 9.23562L73.0764 9.20508H73.2392L73.3868 9.23562L73.5141 9.31708L73.626 9.41382L73.738 9.52582L73.8194 9.6531L73.8703 9.80074L73.8856 9.94839V10.1113L73.8347 10.2589L73.7533 10.3862L73.6566 10.5135L73.5446 10.6102L73.4174 10.707L73.2698 10.7732L73.1069 10.8037L72.9593 10.7884L72.7964 10.7579L72.5369 10.595L72.4402 10.483L72.3587 10.3557L72.3282 10.208L72.3129 10.0604L72.3282 9.91275L72.3587 9.74983L72.4249 9.60219L72.43 9.60728Z"
            fill="black" />
        <path
            d="M81.9889 18.216L81.8413 18.1854L81.6937 18.1345L81.5664 18.0683L81.4392 17.9716L81.2458 17.7476L81.1644 17.6203L81.1135 17.4727L81.0982 17.325L81.0829 17.1621L81.1135 16.8719L81.1287 16.709L81.1593 16.4188L81.2254 16.1286L81.256 16.0166L81.2865 15.8689L81.3374 15.6907L81.3679 15.5635L81.4188 15.4158L81.4494 15.2682L81.5003 15.1205L81.5308 14.9729L81.5817 14.7794L81.6479 14.5707L81.6784 14.423L81.7293 14.2754L81.7598 14.1278L81.8107 13.9801L81.8413 13.8528L81.9074 13.5626L81.9227 13.415L82.0194 12.9772L82.0347 12.8295L82.05 12.6666L82.0347 12.519L81.9685 12.3917L81.8718 12.2949L81.7446 12.2644L81.5817 12.2491L81.4341 12.2797L81.3069 12.3306L80.9201 12.575L80.7928 12.6717L80.5638 12.8652L80.4671 12.9772L80.3551 13.0739L80.2584 13.1859L80.1617 13.3132L80.0803 13.4405L79.9988 13.5525L79.9174 13.6797L79.8207 13.7917L79.7393 13.919L79.6731 14.0463L79.6069 14.1939L79.4593 14.4536L79.4085 14.5809L79.3117 14.8711L79.2812 15.0187L79.215 15.2122L79.1641 15.4056L79.1133 15.5686L79.0624 15.762L78.9962 15.9555L78.9453 16.1184L78.8486 16.5053L78.8333 16.6683L78.7824 16.877L78.7163 17.1366L78.6501 17.3454L78.5992 17.493L78.5687 17.6203L78.5178 17.7679L78.4516 17.8952L78.3549 17.992L78.2073 18.0581L78.0597 18.0887L77.8968 18.104L77.734 18.0887H77.5711L77.4235 18.0581L77.2963 17.992L77.2148 17.8952L77.2301 17.7476L77.2454 17.5847L77.2759 17.3912L77.3268 17.1977L77.393 17.0348L77.4439 16.8261L77.5253 16.5664L77.5915 16.3068L77.6424 16.098L77.6729 15.9351L77.7696 15.5482L77.8663 15.1104L77.9172 14.9831L77.9681 14.8354L78.019 14.642L78.0495 14.4485L78.1004 14.2856L78.131 14.1583L78.2277 13.8172L78.2786 13.6237L78.3294 13.4608L78.36 13.2521L78.4109 12.9924V12.7175L78.3956 12.5088L78.2989 12.3815L78.136 12.3L77.9426 12.2695L77.795 12.3L77.6016 12.3815L77.4388 12.4782L77.3268 12.5902L77.0978 12.7837L76.9502 12.911L76.8026 13.0586L76.7059 13.1706L76.6244 13.2826L76.5583 13.4099L76.4616 13.5575L76.3954 13.639L76.2834 13.8172L76.1715 13.9801L76.0748 14.1278L75.9628 14.306L75.7541 14.7285L75.6879 14.8762L75.637 15.0238L75.6065 15.1714L75.5098 15.4616L75.4793 15.6093L75.4487 15.7722L75.352 16.21L75.3011 16.3577L75.235 16.6479L75.1841 16.7955L75.1535 16.9584L75.1026 17.1214L75.0721 17.269L75.0416 17.381L75.011 17.5287L74.9601 17.6763L74.9092 17.8392L74.7973 17.9869L74.5733 18.0989L74.2985 18.1141L74.0389 18.0989L73.7793 18.0021L73.6165 17.8392L73.5859 17.6458L73.6165 17.4981L73.6826 17.3352L73.7132 17.2385L73.7641 17.0755L73.7946 16.9279L73.8455 16.7192L73.8964 16.5257L73.9269 16.3781L74.0236 16.0879L74.0542 15.9606L74.1051 15.8129L74.1356 15.6653L74.1865 15.538L74.2171 15.3904L74.2679 15.2427L74.3188 15.034L74.3697 14.8405L74.4003 14.6929L74.497 14.4027L74.5479 14.1939L74.5988 14.0005L74.6497 13.8528L74.6802 13.7052L74.6955 13.5575L74.7464 13.4099L74.7769 13.2623L74.8431 13.0688L74.9092 12.8601L74.9754 12.5699L75.0059 12.4426L75.1688 11.7145L75.2197 11.5873L75.2859 11.4396L75.3978 11.3582L75.5607 11.3073L75.7236 11.2767L76.0493 11.3073L76.2122 11.3378L76.3598 11.404L76.487 11.5007L76.5532 11.6127L76.5379 11.7604L76.487 11.9233L76.4361 12.0709L76.4056 12.2186L76.3547 12.3662L76.3241 12.5291L76.2732 12.6768L76.2071 12.967L76.1918 13.0637L76.258 13.0332L76.3394 12.8855L76.4361 12.7582L76.5175 12.631L76.6143 12.519L76.6957 12.3917L76.7924 12.2797L76.9044 12.132L77.0011 12.0353L77.0825 11.9386L77.3064 11.7451L77.566 11.5669L77.678 11.4854L77.8052 11.404L77.9528 11.3378L78.0801 11.2869L78.2429 11.236L78.4058 11.2207H78.6806L78.8282 11.236L78.9758 11.2665L79.1031 11.3174L79.2303 11.3836L79.3423 11.4651L79.439 11.5618L79.5357 11.6738L79.6629 11.9335L79.7138 12.0607L79.7647 12.2084L79.78 12.356V12.5037L79.7647 12.6971L79.7495 12.9059L79.7342 13.0179H79.7495L79.8156 12.9364L79.9123 12.8091L80.009 12.6971L80.1872 12.468L80.2991 12.3408L80.3653 12.2593L80.574 12.0149L80.6707 11.9029L80.7826 11.8215L81.0269 11.628L81.1542 11.5313L81.2662 11.4498L81.3934 11.3836L81.541 11.3174L81.6886 11.2869L81.882 11.2563L82.1568 11.2411L82.2688 11.2258H82.4164L82.564 11.2563L82.7574 11.3073L82.9508 11.3887L83.0984 11.4854L83.1951 11.5822L83.2765 11.7095L83.3427 11.8367L83.3733 11.964L83.4242 12.1117L83.4394 12.2593L83.4547 12.3866V12.6768L83.4394 12.8244L83.4242 12.9873L83.358 13.2775L83.3071 13.4863L83.0628 14.2652L82.9966 14.474L82.9457 14.6216L82.9152 14.8303L82.8643 15.0085L82.8134 15.1714L82.7472 15.3649L82.6963 15.5584L82.6454 15.7213L82.564 16.1082L82.5335 16.2711L82.5029 16.4799L82.4724 16.7548L82.4877 17.0145L82.5386 17.2079L82.6353 17.3046L82.7981 17.2894L82.9254 17.2588L83.0373 17.1926L83.1646 17.1265L83.2918 17.0297L83.4038 16.9483L83.6277 16.7243L83.7092 16.6122L83.9026 16.3526L83.984 16.2711L84.0807 16.1439L84.6457 15.2376L84.7118 15.09L84.8594 14.7998L84.9103 14.7183L85.007 14.5707L85.0732 14.4434L85.2208 14.362L85.4142 14.3925L85.5414 14.5554V14.7183L85.4753 14.866L85.3938 15.0136L85.3429 15.1409L85.2768 15.2529L85.1292 15.5431L85.0172 15.7366L84.9205 15.8995L84.8391 16.0268L84.7576 16.1388L84.5133 16.5257L84.4319 16.6377L84.269 16.8821L84.1723 17.0094L83.9942 17.2334L83.7855 17.4421L83.6888 17.5541L83.5921 17.6508L83.3682 17.8443L83.2409 17.9258L82.8541 18.1192L82.7065 18.1701L82.5793 18.2007L82.4164 18.216H82.0907L81.9634 18.2007L81.9889 18.216Z"
            fill="black" />
        <path
            d="M89.9956 10.2891L89.9141 10.4367L89.7869 10.6964L89.7054 10.8746L89.5935 11.0528L89.512 11.1648L89.4306 11.292L89.3492 11.4041L89.2677 11.5517L89.2016 11.6484L89.1201 11.7757L89.0082 11.9234L88.8606 12.0863L88.713 12.2339L88.6468 12.3154L88.5348 12.4427L88.3262 12.6514L88.2295 12.7634L88.0513 12.9569L87.9394 13.0536L87.8121 13.1809L87.634 13.3082L87.3897 13.5169L87.2624 13.5983L86.9062 13.8224L86.7942 13.8733L86.667 13.9547L86.4888 14.1024L86.3768 14.25L86.3107 14.3773L86.2801 14.5555L86.2292 14.8457V14.9424L86.1987 15.1053L86.1682 15.253L86.1529 15.4159V15.757L86.1376 15.9657V16.2916L86.1682 16.4698L86.1834 16.5665L86.214 16.7294L86.2801 16.8771L86.3463 17.0043L86.443 17.1163L86.5702 17.1978L86.6975 17.2487L86.8604 17.2793H87.1352L87.2624 17.264L87.41 17.2131L87.6034 17.1316L87.7816 17.0349L87.9088 16.9382L88.0717 16.8109L88.2193 16.6632L88.4127 16.485L88.5399 16.373L88.6366 16.2458L88.7028 16.1643L88.7995 16.037L88.8657 15.925L88.9624 15.7774L89.0285 15.6959L89.1252 15.5483L89.2525 15.3039L89.3339 15.1766L89.4306 15.029L89.512 14.8813L89.5935 14.7184L89.7411 14.5097L89.9039 14.3824L90.1126 14.4129L90.2399 14.5759V14.7388L90.189 14.8864L90.1228 15.0137L90.0414 15.141L89.9752 15.2886L89.909 15.4159L89.8581 15.5432L89.7767 15.6705L89.7105 15.7825L89.6291 15.9097L89.5324 16.0574L89.5019 16.1388L89.4204 16.2865L89.3237 16.4138L89.1609 16.6429L89.0489 16.7905L88.9827 16.8567L88.8708 17.0043L88.774 17.1163L88.6468 17.2793L88.4992 17.4065L88.3872 17.5185L88.2905 17.6L88.1786 17.6967L88.031 17.7782L87.9037 17.8444L87.7561 17.9106L87.6289 17.9768L87.5016 18.0277L87.3541 18.0939L87.1606 18.16L86.8349 18.2262L86.6415 18.2415L86.4634 18.2262H86.3667L86.2038 18.2109L86.0562 18.1804L85.929 18.1295L85.7814 18.0786L85.6541 18.0124L85.5269 17.9309L85.4149 17.8342L85.3182 17.7375L85.2215 17.6255L85.1553 17.4982L85.0892 17.3505L85.0383 17.2233L85.0077 17.0756L84.9568 16.928L84.9416 16.7803L84.911 16.6174V16.5207L84.8805 16.3425L84.8652 16.1948V16.0472L84.8805 15.8996L84.8958 15.7366V15.6399L84.911 15.4312L84.9619 15.0748L84.9772 14.8813V14.7337L85.0077 14.586L85.0383 14.4231L85.1503 13.8885L85.2011 13.6951L85.252 13.4049L85.2826 13.3234L85.3335 13.13L85.364 13.0332L85.4302 12.7889L85.4811 12.5801L85.5116 12.4325L85.5625 12.239L85.6287 12.015L85.6439 11.903L85.7101 11.679L85.7763 11.4702L85.8272 11.3582L85.8933 11.1495L85.9595 10.956L86.0257 10.8084L86.1885 10.3858L86.2191 10.2891L86.3158 10.0651L86.4277 9.80543L86.5092 9.61196L86.5753 9.46432L86.6262 9.36759L86.7077 9.21994L86.8196 8.94502L86.9011 8.7821L86.9825 8.63446L87.0792 8.48682L87.2064 8.27808L87.4151 7.98788L87.5118 7.8606L87.7205 7.65186L87.7867 7.57041L87.8986 7.4584L88.0106 7.37694L88.2702 7.19875L88.4483 7.08675L88.6265 7.00529L88.774 6.95437L88.9217 6.92383H89.2118L89.3746 6.95437L89.4713 6.96965L89.6342 7.02056L89.7614 7.08675L89.9854 7.28021L90.0668 7.40749L90.1788 7.57041L90.2602 7.76387L90.3264 7.91151L90.3925 8.10498L90.4231 8.31372V8.60391L90.3925 9.04175L90.3264 9.33195L90.2755 9.45923L90.2449 9.62215L90.1177 10.0091L90.0515 10.1364L90.0006 10.284L89.9956 10.2891ZM87.3082 10.7422L87.0792 11.4193L87.0487 11.567L86.9978 11.7146L86.9316 11.9234L86.8196 12.2645L86.7687 12.4274L86.7535 12.5241L86.7026 12.687L86.6517 12.8347L86.6211 12.9976L86.6517 13.0943L86.7484 13.0281L86.9113 12.9009L87.5729 12.239L87.6543 12.127L87.7358 11.9997L87.8325 11.8521L87.8986 11.7859L87.9953 11.6382L88.1073 11.4906L88.2193 11.3277L88.3313 11.1495L88.4127 11.0222L88.4789 10.9102L88.5603 10.7982L88.6875 10.5386L88.7537 10.3756L88.8046 10.2789L88.8708 10.116L88.9369 9.96835L88.9675 9.8207L89.0183 9.67306L89.0692 9.49487L89.1354 9.31668L89.1863 9.13849L89.2525 8.9603L89.2677 8.79738L89.283 8.64973V8.34426L89.2525 8.21698L89.2016 8.08971L89.0896 8.00825L88.9624 7.9777L88.8148 8.00825L88.6672 8.12025L88.5552 8.21698L88.4738 8.31372L88.3923 8.42572L88.3109 8.553L88.148 8.79738L88.0666 8.94502L88.0004 9.09267L87.9343 9.21994L87.8681 9.36759L87.8019 9.49487L87.7358 9.64251L87.6849 9.76979L87.6187 9.94798L87.522 10.1924L87.4558 10.34L87.293 10.7422H87.3082Z"
            fill="black" />
        <path
            d="M93.5573 14.5753V14.7535L93.5064 14.9011L93.3792 15.1608L93.2316 15.4051L93.1502 15.5528L93.084 15.6801L92.9873 15.8277L92.9364 15.9244L92.855 16.0721L92.7735 16.1994L92.6921 16.3114L92.5954 16.4387L92.514 16.5507L92.3511 16.8103L92.061 17.1514L91.8676 17.3602L91.7556 17.4722L91.6589 17.5842L91.5469 17.6809L91.1907 17.9558L91.0787 18.0373L90.9311 18.1035L90.7835 18.1544L90.6563 18.1849L90.3662 18.2511H90.0913L89.9132 18.2358L89.7859 18.1849L89.6383 18.134L89.5111 18.0526L89.3991 17.9558L89.3177 17.8438L89.2363 17.7165L89.1701 17.5689L89.1396 17.4416L89.109 17.294L89.0938 17.1463V16.9987L89.1243 16.7085L89.1548 16.5608L89.2057 16.4132L89.2719 16.123L89.3228 15.9957L89.3533 15.8481L89.4042 15.7004L89.4551 15.5732L89.6027 15.1353L89.618 15.008L89.6485 14.8604L89.6994 14.7127L89.73 14.5651L89.7605 14.4378L89.8572 14.1476L89.9081 13.9542L89.959 13.7454L90.0557 13.4552L90.0862 13.3076L90.1168 13.1956L90.1473 13.0479L90.2135 12.885L90.2644 12.7577L90.3611 12.3199L90.412 12.1723L90.4629 11.9788L90.529 11.7701L90.5799 11.6224L90.6461 11.4951L90.7428 11.4137L90.8904 11.3475L91.0176 11.3322L91.1805 11.3475L91.4706 11.378L91.7302 11.4748L91.8116 11.5868V11.7344L91.7811 11.8821L91.7302 12.0755L91.6793 12.2843L91.5826 12.5745L91.552 12.7017L91.5215 12.8494L91.4706 13.0123L91.4197 13.2058L91.2568 13.6894L91.2263 13.8371L91.1601 14.0458L91.0482 14.3869L91.0176 14.5346L90.9871 14.6618L90.9565 14.8095L90.8446 15.0844L90.814 15.232L90.7021 15.6342L90.6054 15.9244L90.5748 16.0721L90.5239 16.2808L90.473 16.5405L90.4425 16.8154L90.473 17.0598L90.6003 17.238L90.7784 17.2889L90.926 17.2736L91.0736 17.2074L91.1856 17.126L91.3128 17.0292L91.8472 16.4947L91.9439 16.3826L92.0254 16.2706L92.1221 16.1434L92.2849 15.8837L92.3816 15.7717L92.4478 15.675L92.5292 15.5477L92.6259 15.4001L92.6921 15.2524L92.8193 14.9775L93.0127 14.5906L93.0942 14.4633L93.2418 14.3818L93.4505 14.4124L93.5777 14.5753H93.5573ZM90.9515 9.6063L91.0329 9.47903L91.1601 9.36702L91.2874 9.28556L91.4502 9.23465L91.5978 9.2041H91.7607L91.9083 9.23465L92.0355 9.31611L92.1475 9.41284L92.2595 9.52484L92.3409 9.65212L92.3918 9.79977L92.4071 9.94741V10.1103L92.3562 10.258L92.2748 10.3853L92.1781 10.5125L92.0661 10.6093L91.9388 10.706L91.7912 10.7722L91.6284 10.8027L91.4808 10.7875L91.3179 10.7569L91.0583 10.594L90.9616 10.482L90.8802 10.3547L90.8497 10.2071L90.8344 10.0594L90.8497 9.91177L90.8802 9.74886L90.9464 9.60121L90.9515 9.6063Z"
            fill="black" />
        <path
            d="M95.0268 18.1856L94.8996 18.1704L94.752 18.1398L94.6044 18.0889L94.411 18.0074L94.2329 17.9107L94.0853 17.8292L93.9224 17.702L93.7748 17.5543L93.6628 17.4576L93.5661 17.3456L93.4694 17.2489L93.4033 17.1216L93.3218 16.9739L93.2404 16.7805L93.159 16.6023L93.1081 16.4546L93.0572 16.2459L93.0266 16.0524L93.0114 15.8895L92.9961 15.7419V15.4517L93.0114 15.3244L93.0266 15.1767L93.0419 15.0138L93.0724 14.8204L93.1233 14.6116L93.1742 14.464L93.2048 14.3163L93.3167 13.9752L93.3982 13.797L93.4796 13.6494L93.7392 13.1301L93.8206 13.0028L93.9835 12.7737L94.2074 12.5293L94.2583 12.4632L94.3703 12.3359L94.4823 12.2391L94.579 12.1424L94.6909 12.0457L94.8029 11.9642L94.9301 11.8675L95.0421 11.786L95.1694 11.7198L95.2966 11.6384L95.4086 11.5722L95.5358 11.506L95.7139 11.4246L96.0549 11.3278L96.2331 11.2769L96.3807 11.2464L96.5283 11.2311L96.6911 11.2158H96.966L97.1136 11.2311L97.3223 11.2616L97.5666 11.3278L97.7752 11.394L97.9228 11.4449L98.0348 11.5111L98.1468 11.5926L98.2587 11.6893L98.3554 11.8013L98.4522 11.898L98.5183 12.0457L98.5845 12.2239L98.6354 12.4173L98.6506 12.5803L98.6354 12.7737L98.5845 12.9825L98.5336 13.1301L98.4674 13.2574L98.386 13.3847L98.274 13.5476L98.162 13.6952L98.0653 13.8072L97.9534 13.904L97.8261 13.9701L97.6175 14.0007H97.3579L97.0983 13.9345L96.9355 13.8225V13.6596L97.0169 13.5119L97.1289 13.3337L97.2256 13.1861L97.2917 13.0385L97.3223 12.9112L97.3528 12.7635V12.6363L97.3223 12.4886L97.2103 12.3257L97.0474 12.2137L96.8998 12.1628L96.7522 12.1475L96.6046 12.1628L96.4112 12.1933L96.2178 12.2595L96.0702 12.3257L95.9582 12.4072L95.831 12.5039L95.719 12.5853L95.5918 12.6821L95.4646 12.8297L95.3526 12.9417L95.2406 13.0894L95.093 13.2676L94.9963 13.4458L94.9301 13.5934L94.8487 13.7207L94.7825 13.8327L94.7164 13.96L94.6655 14.1076L94.6146 14.2349L94.5637 14.3825L94.5128 14.5913L94.4619 14.7847L94.4314 14.9476L94.4008 15.1411L94.3856 15.3498L94.3703 15.5128V15.7215L94.3856 15.9812L94.4365 16.2052L94.4873 16.3681L94.6502 16.6939L94.7469 16.8212L94.8436 16.9179L94.9556 17.0147L95.1337 17.0961L95.3271 17.1776L95.4747 17.2081L95.6834 17.2387H96.0397L96.4112 17.2081L96.5588 17.1776L96.737 17.1267L96.8846 17.0605L97.0627 16.9637L97.2408 16.8823L97.6276 16.6379L97.7905 16.5106L97.9381 16.3834L98.162 16.1899L98.3554 15.9659L98.4522 15.8691L98.6456 15.6451L98.8084 15.4211L98.9051 15.2735L98.956 15.1767L99.068 14.9986L99.1647 14.8356L99.2309 14.688L99.3428 14.4793L99.5057 14.3673L99.7144 14.3978L99.8416 14.5454V14.7236L99.7907 14.8509L99.7246 14.9782L99.6584 15.1258L99.577 15.2888L99.465 15.4669L99.3377 15.6451L99.2105 15.8386L98.9662 16.195L98.8695 16.3223L98.7881 16.4343L98.6761 16.5463L98.386 16.8874L98.3046 16.9994L98.2079 17.0961L98.0959 17.1929L97.8719 17.3558L97.7752 17.4372L97.6633 17.5187L97.5157 17.6307L97.3884 17.7122L97.2612 17.7783L97.1339 17.8598L96.9405 17.9413L96.7471 18.0074L96.569 18.0584L96.3756 18.0889L96.1822 18.1398L95.8921 18.1907L95.4544 18.2416L95.1643 18.2111L95.0167 18.1805L95.0268 18.1856Z"
            fill="black" />
        <path
            d="M103.732 17.3093L103.503 17.5028L103.244 17.6657L103.116 17.7319L102.857 17.8948L102.73 17.961L102.44 18.0577L102.277 18.1086L101.987 18.1595L101.89 18.1901L101.727 18.2206L101.6 18.2359H101.452L101.274 18.2512H101.126L100.836 18.2206L100.658 18.1697L100.511 18.1188L100.399 18.0679L100.251 18.017L100.124 17.9508L99.8642 17.7879L99.7522 17.6912L99.5588 17.4621L99.4774 17.3348L99.4112 17.2075L99.3298 17.0802L99.2331 16.79L99.1669 16.4998L99.1364 16.2096L99.1211 16.0467L99.1364 15.8991V15.446L99.1669 15.2983L99.1974 15.171L99.228 15.0234L99.2789 14.7332L99.3094 14.5703L99.3399 14.4226L99.3908 14.2954L99.4417 14.1477L99.5079 14.0001L99.5741 13.8728L99.625 13.7251L99.7064 13.5317L99.8031 13.3382L99.8845 13.2109L99.9812 13.0837L100.063 12.9716L100.159 12.8596L100.322 12.6L100.419 12.488L100.628 12.2793L100.852 12.0858L100.964 12.0043L101.091 11.9076L101.238 11.8109L101.417 11.6989L101.595 11.6021L101.722 11.5359L101.885 11.4698L101.981 11.4392L102.16 11.373L102.256 11.3425L102.419 11.2916L102.567 11.261L102.73 11.2457L102.877 11.2305H103.249L103.508 11.261L103.717 11.2916L103.865 11.3221L104.012 11.373L104.139 11.4392L104.43 11.6174L104.608 11.7141L104.72 11.8109L104.801 11.9076L104.898 12.0196L104.994 12.1469L105.188 12.5033L105.239 12.6509L105.254 12.7985L105.269 12.9258L105.336 13.216V13.7811L105.305 13.9746L105.29 14.1528L105.274 14.3157L105.178 14.7994L105.112 15.0234L105.061 15.1863L104.994 15.3492L104.928 15.5274L104.877 15.6751L104.781 15.8532L104.633 16.1434L104.552 16.3216L104.567 16.4336L104.694 16.4489H104.791L104.969 16.4336L105.081 16.4184L105.229 16.3878L105.391 16.3216L105.503 16.2555L105.763 16.0925L105.875 15.9958L106.084 15.7871L106.277 15.558L106.359 15.446L106.44 15.3187L106.521 15.2067L106.649 14.947L106.796 14.6721L106.847 14.5754L106.944 14.4277L107.091 14.3463L107.285 14.3768L107.412 14.5245L107.427 14.7026L107.376 14.8503L107.183 15.2372L107.102 15.3492L106.939 15.6089L106.873 15.7362L106.791 15.8482L106.694 15.9754L106.613 16.0874L106.516 16.1842L106.308 16.4082L106.211 16.5049L106.099 16.6017L105.987 16.6831L105.86 16.7798L105.748 16.846L105.488 16.9733L105.341 17.0395L105.213 17.07L104.633 17.1362L104.455 17.121L104.307 17.1057L104.18 17.0751L104.053 17.0599L103.941 17.1108L103.829 17.1922L103.732 17.3042V17.3093ZM100.531 15.5478L100.516 15.7412L100.531 15.9042L100.546 16.1129L100.577 16.3725L100.643 16.6322L100.755 16.8766L100.867 17.0395L100.994 17.1515L101.172 17.233L101.417 17.2991H101.625L101.788 17.2839L101.951 17.2533L102.099 17.1871L102.226 17.121L102.373 17.0395L102.501 16.958L102.613 16.8613L102.74 16.7646L102.806 16.6526V16.5558L102.74 16.4438L102.658 16.3165L102.628 16.1689L102.658 15.9754L102.725 15.782L102.837 15.6852L102.964 15.6038L103.111 15.5885L103.259 15.6191L103.371 15.6496L103.468 15.6343L103.534 15.5376L103.585 15.4103L103.778 14.8299L103.875 14.3921L103.905 14.1833L103.956 13.9084L103.987 13.3586L103.971 13.0989L103.905 12.824L103.809 12.5796L103.697 12.4167L103.569 12.32L103.376 12.2385L103.132 12.1876L102.923 12.1723H102.76L102.633 12.2029L102.485 12.2538L102.322 12.3505L102.195 12.432L102.048 12.5287L101.885 12.656L101.773 12.7527L101.661 12.8647L101.579 12.9767L101.483 13.0887L101.401 13.216L101.238 13.44L101.157 13.5673L100.831 14.2139L100.78 14.3615L100.75 14.4888L100.653 14.779L100.623 14.9063L100.572 15.0539L100.556 15.2016V15.3492L100.526 15.5427L100.531 15.5478Z"
            fill="black" />
        <path
            d="M112.837 6.87283L113 6.85755L113.148 6.84228L113.474 6.85755H113.586L113.748 6.87283L113.896 6.8881L114.201 6.93901L114.639 7.03574L114.766 7.06629L114.914 7.09684L115.062 7.16302L115.209 7.21393L115.336 7.24448L115.626 7.34121L115.754 7.4074L115.901 7.47358L116.029 7.53977L116.334 7.65177L116.461 7.71796L116.573 7.76887L116.721 7.83506L116.848 7.88597L117.428 8.04889L117.591 8.0998L117.688 8.13034L117.851 8.18126L118.013 8.19653L118.222 8.22708H118.416L118.594 8.24235L118.884 8.2118L119.011 8.19653L119.159 8.16598L119.306 8.11507L119.434 8.04889L119.545 7.96743L119.673 7.88597L119.769 7.80451L119.881 7.70778L119.963 7.59577L120.029 7.46849L120.095 7.32085L120.146 7.11211L120.258 6.90337L120.467 6.80664L120.711 6.82191L120.904 6.93392L120.986 7.09684L121.016 7.25975V7.42267L120.986 7.57032L120.935 7.71796L120.904 7.88088L120.853 8.02852L120.787 8.1558L120.736 8.26781L120.655 8.41545L120.543 8.54273L120.446 8.65473L120.334 8.76674L120.187 8.86347L120.009 8.9602L119.683 9.12312L119.535 9.18931L119.408 9.21985L119.281 9.23513L119.133 9.26567L118.955 9.28095L118.828 9.29622L118.634 9.28095H118.456L118.278 9.26567L118.085 9.23513L117.662 9.18422L117.515 9.15367L117.062 9.02639L116.868 9.01112L116.721 9.09258L116.655 9.21985L116.604 9.38277L116.553 9.56096L116.522 9.72388L116.471 9.93262L116.42 10.1261L116.339 10.4163L116.288 10.5639L116.258 10.7116L116.227 10.8388L116.197 10.9865L116.146 11.1341L116.095 11.2614L116.079 11.4091L116.013 11.6993L115.962 11.8265L115.932 11.9742L115.835 12.2644L115.784 12.4731L115.754 12.6666L115.723 12.8295L115.693 12.9771L115.662 13.1044L115.499 13.5881L115.433 13.7968L115.403 13.9445L115.352 14.0921L115.224 14.6725L115.173 14.8354L115.143 14.9321L115.092 15.0951L115.041 15.2427L114.975 15.37L114.924 15.4973L114.858 15.6449L114.807 15.7722L114.659 16.21L114.593 16.3373L114.527 16.485L114.461 16.6122L114.38 16.7242L114.135 17.1112L114.054 17.2232L113.86 17.4472L113.748 17.5439L113.652 17.6559L113.54 17.7374L113.412 17.8341L113.265 17.9156L113.138 17.9818L113.026 18.0327L112.878 18.0988L112.751 18.1498L112.603 18.1803L112.456 18.1956L112.293 18.2109L112.145 18.2261L112.018 18.2414H111.87L111.707 18.2261L111.499 18.2109L111.239 18.1599L111.076 18.109L110.898 18.0581L110.69 17.9767L110.511 17.8799L110.384 17.7985L110.221 17.6508L110.043 17.4726L109.916 17.3097L109.834 17.1468L109.784 17.0653L109.717 16.9024L109.667 16.7751L109.636 16.6275L109.621 16.4188L109.605 16.2253L109.621 16.0624L109.636 15.8689L109.667 15.6602L109.814 15.2223L109.896 15.0951L109.962 14.9678L110.043 14.8558L110.125 14.7285L110.221 14.6012L110.318 14.5045L110.415 14.3925L110.527 14.311L110.654 14.2448L110.802 14.2143L110.929 14.2296L111.076 14.2805L111.188 14.3619L111.285 14.4739L111.351 14.5859V14.7336L111.27 14.9118L111.143 15.1358L111.046 15.314L110.98 15.4769L110.929 15.6704L110.878 15.93V16.2049L110.908 16.4137L110.959 16.5613L111.056 16.7395L111.168 16.9024L111.295 17.0144L111.458 17.1112L111.702 17.2079L111.911 17.2384L112.074 17.2537H112.222L112.349 17.2232L112.496 17.1723L112.624 17.0908L112.736 17.0093L112.929 16.8159L113.026 16.7039L113.122 16.5562L113.189 16.4086L113.382 16.0217L113.448 15.874L113.499 15.7264L113.565 15.5991L113.616 15.4514L113.682 15.3038L113.733 15.1765L113.83 14.8863L113.881 14.759L113.932 14.5809L113.962 14.4841L114.013 14.3059L114.079 14.0157L114.094 13.8885L114.145 13.7103L114.176 13.6135L114.227 13.3895L114.278 13.1961L114.374 12.9059L114.405 12.7582L114.456 12.6309L114.507 12.4833L114.558 12.356L114.573 12.2084L114.639 11.9182L114.67 11.7909L114.721 11.6432L114.751 11.4956L114.802 11.348L114.853 11.1545L114.919 10.961L114.95 10.7981L114.965 10.6505L115.016 10.5232L115.097 10.233L115.163 10.0243L115.214 9.83079L115.311 9.5406L115.341 9.39295L115.392 9.19949L115.443 8.99075L115.494 8.82783L115.509 8.64964L115.479 8.502L115.382 8.42054L115.107 8.29326L114.98 8.22708L114.802 8.17616L114.415 8.04889L114.237 7.99797L114.11 7.94706L113.82 7.88088L113.657 7.8656L113.509 7.85033L113.331 7.83506H112.893L112.603 7.90124L112.084 8.16089L111.972 8.24235L111.86 8.35436L111.779 8.46636L111.682 8.64455L111.601 8.83802L111.57 8.98566V9.14858L111.585 9.27586L111.636 9.4235L111.702 9.53551L111.814 9.64751L111.926 9.72897L112.054 9.79516L112.201 9.84607L112.349 9.86134H112.496L112.644 9.84607L112.771 9.81552L112.919 9.78497L113.066 9.73406L113.229 9.66788L113.311 9.61696L113.474 9.55078L113.636 9.58133L113.764 9.67806L113.845 9.80534L113.896 9.96826L113.865 10.1159L113.738 10.2432L113.575 10.3705L113.428 10.4519L113.234 10.5486L113.005 10.6454L112.797 10.7268L112.649 10.7778L112.44 10.8083L112.216 10.8236H111.814L111.621 10.7727L111.428 10.7065L111.28 10.6403L111.102 10.5588L110.924 10.4468L110.796 10.3348L110.73 10.2686L110.603 10.1566L110.522 10.0446L110.455 9.91734L110.374 9.72388L110.308 9.54569L110.277 9.38277L110.262 9.21985L110.247 9.07221V8.92457L110.262 8.76165L110.313 8.61401L110.343 8.48673L110.41 8.33908L110.572 8.07943L110.654 7.96743L110.751 7.84015L110.944 7.61105L111.056 7.49904L111.168 7.41758L111.443 7.26994L111.57 7.20375L111.697 7.12229L112.135 6.97465L112.283 6.9441L112.751 6.87792L112.848 6.86264L112.837 6.87283Z"
            fill="black" />
        <path
            d="M125.923 15.0137L125.892 15.0951L125.811 15.2581L125.729 15.3701L125.663 15.4973L125.597 15.645L125.531 15.7723L125.368 16.0319L125.287 16.1439L125.205 16.2712L125.139 16.3985L125.057 16.5258L124.961 16.6378L124.864 16.7651L124.767 16.8771L124.589 17.1011L124.493 17.2131L124.396 17.3098L123.943 17.6967L123.816 17.7782L123.668 17.8597L123.49 17.9411L123.296 18.0226L123.149 18.0735L123.001 18.104H122.838L122.645 18.0888L122.452 18.0378L122.304 17.9869L122.192 17.9055L122.08 17.8087L121.968 17.6458L121.856 17.4676L121.805 17.32L121.754 17.1265L121.739 16.9178V16.7549L121.754 16.5461L121.77 16.3527L121.719 16.3221L121.637 16.4341L121.474 16.6938L121.312 16.9178L121.215 17.0298L121.133 17.1418L121.037 17.2538L120.955 17.3658L120.843 17.4625L120.747 17.5593L120.635 17.656L120.523 17.7375L120.395 17.8189L120.217 17.9309L119.973 18.0429L119.713 18.1244L119.505 18.1753L119.215 18.2058L119.052 18.1906L118.858 18.16L118.665 18.1091L118.517 18.0582L118.39 18.0073L118.278 17.9258L118.054 17.7324L117.973 17.6204L117.891 17.4931L117.795 17.3149L117.698 17.0705L117.647 16.8618L117.632 16.6989L117.601 16.4901L117.586 16.2305V16.0217L117.601 15.8588L117.616 15.6501L117.647 15.4566L117.698 15.2937L117.749 15.1002L117.8 14.8915L117.851 14.7439L117.917 14.6166L117.968 14.4689L118.354 13.69L118.436 13.5627L118.517 13.4507L118.599 13.3234L118.762 13.0943L118.858 12.9823L119.067 12.7379L119.133 12.6718L119.245 12.5445L119.469 12.351L119.617 12.2034L119.795 12.0761L120.019 11.8979L120.146 11.8164L120.258 11.735L120.406 11.6688L120.599 11.5873L120.777 11.4906L120.94 11.4091L121.133 11.343L121.327 11.292L121.49 11.2411L121.892 11.2106L122.039 11.1953H122.233L122.558 11.2106L122.93 11.2411L123.286 11.3073L123.434 11.3379L123.612 11.3888L124.258 11.679L124.37 11.7757L124.482 11.8572L124.594 11.9539L124.691 12.0659L124.722 12.2441L124.655 12.4732L124.477 12.6667L124.299 12.7787L124.172 12.7939L124.045 12.743L123.917 12.6463L123.77 12.5648L123.643 12.4834L123.531 12.4325L123.403 12.3663L123.256 12.3001L123.129 12.2695L122.854 12.2034L122.691 12.1525L122.528 12.1219H122.202L122.09 12.1372L121.927 12.1525L121.719 12.2034L121.317 12.351L121.154 12.4325L120.991 12.5292L120.879 12.6107L120.752 12.6921L120.64 12.7736L120.528 12.8703L120.4 12.9823L120.334 13.0485L120.222 13.1758L120.126 13.2878L120.044 13.3998L119.851 13.6238L119.769 13.7358L119.688 13.8631L119.495 14.25L119.413 14.3773L119.316 14.6675L119.25 14.8151L119.184 14.9424L119.087 15.3803L119.036 15.5432L118.986 15.981V16.4341L119.001 16.597L119.052 16.7447L119.118 16.872L119.199 16.9992L119.296 17.096L119.444 17.1622L119.637 17.1927L119.846 17.1774L119.993 17.1265L120.253 16.9992L120.482 16.8058L120.579 16.709L120.691 16.6123L120.787 16.5003L120.869 16.3883L120.965 16.2763L121.047 16.1643L121.225 15.9199L121.306 15.8079L121.551 15.421L121.647 15.2428L121.759 15.0341L121.826 14.9373L122.019 14.5148L122.085 14.3671L122.116 14.2551L122.182 14.1075L122.233 13.9802L122.284 13.8325L122.35 13.6543L122.447 13.3285L122.513 13.1503L122.564 12.9874L122.66 12.8398L122.823 12.7583L122.971 12.7278L123.118 12.743L123.266 12.7736L123.526 12.9009L123.653 12.9823L123.719 13.079L123.734 13.2267L123.683 13.354L123.653 13.5016L123.602 13.6493L123.536 13.9395L123.485 14.0871L123.454 14.2144L123.358 14.5046L123.327 14.6675L123.312 14.7642L123.261 14.9577L123.23 15.1053L123.164 15.3803L123.113 15.5737L123.083 15.7366L123.052 15.9148L123.001 16.1592L122.95 16.4341L122.935 16.6785L122.95 16.8872L123.032 17.0145L123.195 17.096L123.439 17.1112L123.632 17.0451L123.78 16.9636L124.004 16.8007L124.116 16.6887L124.309 16.4799L124.503 16.2559L124.666 16.0268L124.747 15.8996L124.844 15.7723L124.874 15.6755L125.134 15.2886L125.2 15.1613L125.281 15.0341L125.607 14.3875L125.755 14.306L125.948 14.3366L126.075 14.4995L126.091 14.6624L126.025 14.81L125.943 14.973L125.923 15.0137Z"
            fill="black" />
        <path
            d="M129.139 12.3406L129.011 12.4067L128.9 12.4729L128.788 12.5544L128.66 12.6511L128.548 12.7478L128.289 12.926L128.177 13.0075L128.065 13.1042L127.953 13.2162L127.759 13.4402L127.647 13.5523L127.454 13.7763L127.291 14.0359L127.194 14.1632L127.001 14.5501L126.823 15.0847L126.772 15.2934L126.706 15.5378L126.64 15.7465L126.543 16.1844L126.477 16.3931L126.411 16.6375L126.36 16.8462L126.309 16.9939L126.258 17.2026L126.227 17.3808L126.177 17.5437L126.161 17.6914L126.131 17.8186L126.08 17.9459L125.983 18.0274L125.836 18.0783L125.688 18.0936L125.479 18.1088L125.235 18.0936L125.026 18.063L124.899 17.9968L124.802 17.8492L124.787 17.671L124.818 17.5081L124.869 17.2993L124.919 17.1059L124.95 16.9582L125.001 16.8106L125.031 16.663L125.082 16.5357L125.133 16.388L125.164 16.2404L125.194 16.1131L125.225 15.9655L125.276 15.8178L125.327 15.6905L125.393 15.4003L125.423 15.2731L125.439 15.1254L125.489 14.9778L125.52 14.8301L125.571 14.6825L125.622 14.489L125.688 14.2803L125.769 13.9901L125.8 13.8628L125.83 13.7152L125.881 13.5675L125.912 13.4199L125.963 13.2926L125.993 13.145L126.044 12.9973L126.095 12.7886L126.146 12.5951L126.177 12.4475L126.273 12.1573L126.304 12.03L126.355 11.8823L126.421 11.5922L126.533 11.4292L126.742 11.3172L127.001 11.2867L127.261 11.3172L127.505 11.3987L127.668 11.5616L127.698 11.7551L127.668 11.918L127.637 12.03L127.586 12.1776L127.556 12.3253L127.505 12.4526L127.474 12.6002L127.424 12.7478L127.393 12.8955L127.378 12.9922L127.393 13.0075L127.459 12.926L127.556 12.814L127.637 12.702L127.831 12.478L127.943 12.3813L128.151 12.2031L128.263 12.1064L128.472 11.8976L128.798 11.638L128.925 11.5565L129.052 11.4903L129.179 11.4089L129.307 11.358L129.454 11.307L129.663 11.2561L129.856 11.2256H130.228L130.487 11.2561L130.666 11.2867L130.813 11.3529L130.961 11.4343L131.073 11.5463L131.154 11.6583L131.236 11.7856L131.302 11.9129L131.353 12.0605L131.404 12.254L131.434 12.4475V12.7529L131.419 12.9006V13.0482L131.404 13.1755L131.373 13.3231L131.343 13.4861L131.312 13.5828L131.261 13.7457L131.21 13.9545L131.144 14.1988L131.078 14.4076L131.027 14.5552L130.976 14.7639L130.91 15.0389L130.844 15.2985L130.778 15.5225L130.747 15.6702L130.716 15.7822L130.686 15.9298L130.635 16.0775L130.605 16.2047L130.508 16.6426L130.493 16.7902V17.0804L130.559 17.2077L130.671 17.2892L130.818 17.3044L130.966 17.2535L131.113 17.1873L131.241 17.1059L131.353 17.0244L131.48 16.9277L131.689 16.719L131.77 16.6069L131.867 16.4797L131.948 16.3677L132.06 16.2404L132.142 16.1284L132.238 15.9807L132.386 15.7364L132.483 15.5887L132.533 15.5073L132.63 15.3596L132.712 15.212L132.839 14.9523L132.905 14.8047L132.956 14.6774L133.007 14.5298L133.088 14.4025L133.236 14.3057L133.445 14.3567L133.572 14.5196V14.6825L133.521 14.8301L133.455 14.9574L133.389 15.1051L133.322 15.2323L133.241 15.3596L133.175 15.4869L133.078 15.6345L133.027 15.7313L132.864 16.0215L132.834 16.1182L132.752 16.2658L132.589 16.5255L132.493 16.6731L132.427 16.7546L132.33 16.8819L132.218 17.0295L132.121 17.1415L131.943 17.335L131.846 17.447L131.622 17.6405L131.526 17.7372L131.399 17.8339L131.271 17.9154L131.012 18.0427L130.884 18.0936L130.737 18.1445L130.589 18.175L130.462 18.1903L130.299 18.2056H130.152L130.004 18.1903L129.877 18.1598L129.729 18.1088L129.602 18.0579L129.475 17.9765L129.378 17.895L129.281 17.783L129.215 17.6354L129.164 17.5081L129.134 17.3604L129.103 17.2332V16.8768L129.134 16.668L129.149 16.5051L129.2 16.2964L129.347 15.7618L129.398 15.4869L129.464 15.212L129.531 14.9523L129.597 14.7436L129.648 14.5959L129.714 14.3872L129.78 14.1276L129.831 13.8679L129.897 13.6592L129.963 13.369L129.979 13.2213L130.045 12.9159L130.06 12.7682L130.029 12.6053L129.933 12.4424L129.785 12.2947L129.638 12.2438L129.49 12.2285L129.342 12.2438L129.164 12.31L129.139 12.3406Z"
            fill="black" />
        <path
            d="M133.801 12.8604L133.913 12.7484L134.106 12.5244L134.447 12.2342L134.559 12.1527L134.686 12.056L134.798 11.9746L134.925 11.9084L135.073 11.8422L135.317 11.7149L135.465 11.6334L135.755 11.5367L135.882 11.4858L136.172 11.4196L136.32 11.4043L136.483 11.3891L136.773 11.3585H137.144L137.353 11.3891L137.531 11.4196L137.643 11.4349L137.74 11.384L137.806 11.272L137.837 11.1243L137.933 10.8341L137.964 10.7069L138.015 10.5592L138.127 10.2843L138.178 10.1214L138.208 10.0246L138.274 9.86172L138.305 9.73444L138.402 9.44424L138.452 9.31696L138.615 8.8333L138.697 8.63984L138.793 8.34964L138.844 8.22236L138.911 8.05944L138.941 7.96271L139.068 7.67252L139.119 7.54524L139.267 7.27031L139.333 7.14303L139.481 7.03103L139.659 6.96484H139.822L139.969 6.98012L140.132 7.01066L140.229 7.04121L140.392 7.09212L140.504 7.17358L140.554 7.30086L140.524 7.42814L140.493 7.57578L140.427 7.72343L140.361 7.85071L140.31 7.97799L140.259 8.12563L140.178 8.31909L140.112 8.51256L140.046 8.69075L139.852 9.21005L139.786 9.40351L139.705 9.59698L139.654 9.74462L139.603 9.8719L139.491 10.213L139.409 10.4065L139.358 10.5694L139.18 11.104L139.15 11.2516L139.099 11.3789L139.048 11.5265L138.997 11.6538L138.946 11.8015L138.895 11.9287L138.865 12.0764L138.834 12.2037L138.804 12.3513L138.753 12.4989L138.702 12.6262L138.651 12.7739L138.62 12.9215L138.59 13.0488L138.559 13.1964L138.508 13.3441L138.458 13.5528L138.391 13.7616L138.361 13.8583L138.31 14.0365L138.279 14.1841L138.249 14.3776L138.218 14.5863L138.122 15.0242L138.106 15.1718L138.076 15.3194L138.045 15.5282L138.015 15.7217L138 15.8693L137.969 16.0169L137.954 16.1646V16.3122L137.969 16.4751L137.984 16.6839L138.035 16.8773L138.086 17.025L138.183 17.1217L138.31 17.1726L138.458 17.1879L138.585 17.1574L138.732 17.1064L138.86 17.025L139.15 16.7653L139.262 16.6533L139.425 16.4242L139.587 16.1646L139.811 15.8387L139.893 15.7115L139.959 15.5842L140.04 15.4365L140.203 15.0802L140.285 14.9325L140.351 14.8205L140.417 14.6729L140.498 14.4947L140.677 14.3674L140.87 14.3979L140.982 14.5609V14.7696L140.901 14.9631L140.819 15.126L140.722 15.3042L140.626 15.5129L140.56 15.6096L140.366 15.9966L140.269 16.1442L140.061 16.4853L139.898 16.745L139.816 16.857L139.72 16.9843L139.638 17.0963L139.542 17.193L139.43 17.2897L139.318 17.417L139.252 17.4832L139.14 17.6105L139.028 17.7072L138.9 17.7887L138.788 17.8549L138.661 17.921L138.239 18.0687L138.091 18.0992H137.964L137.816 18.1145L137.669 18.0992L137.521 18.0687L137.394 18.0025L137.267 17.921L137.17 17.8396L137.058 17.7276L136.895 17.5036L136.829 17.3763L136.778 17.2286L136.747 17.1014L136.697 16.6635V16.358L136.666 16.3428L136.585 16.4548L136.503 16.5821L136.356 16.8417L136.274 16.9537L136.177 17.0657L135.999 17.2897L135.903 17.3865L135.562 17.6767L135.414 17.7887L135.251 17.9159L135.104 18.0127L134.976 18.0789L134.813 18.1298L134.442 18.2112L134.279 18.2418L134.131 18.2571L134.004 18.2418L133.857 18.2265L133.709 18.196L133.582 18.1654L133.434 18.0992L133.322 18.033L133.195 17.9363L133.047 17.7887L132.9 17.6614L132.818 17.5341L132.752 17.4068L132.701 17.2592L132.605 16.9995L132.554 16.8519L132.538 16.7042L132.523 16.5108V16.302L132.508 16.1544V16.0068L132.523 15.8438L132.538 15.6504L132.569 15.4416L132.599 15.294L132.65 15.1311L132.666 15.0343L132.716 14.8714L132.767 14.7238L132.915 14.3369L132.966 14.1892L133.093 13.9296L133.19 13.7514L133.271 13.5732L133.368 13.4103L133.434 13.3288L133.531 13.2015L133.694 12.9724L133.79 12.8604H133.801ZM137.099 12.2953L136.793 12.3106H136.646L136.498 12.3411L136.335 12.3717L136.238 12.4022L136.076 12.4684L135.928 12.5193L135.78 12.5855L135.653 12.667L135.541 12.7484L135.429 12.8451L135.317 12.9571L135.093 13.1506L134.997 13.2473L134.9 13.3594L134.707 13.6037L134.625 13.7157L134.544 13.8634L134.35 14.2198L134.269 14.347L134.218 14.4743L134.167 14.622L134.116 14.7492L134.05 14.8969L133.953 15.2838L133.902 15.4315L133.872 15.6402L133.857 15.8337L133.841 15.9966L133.872 16.2053L133.902 16.465L133.933 16.6737L133.984 16.8213L134.065 16.9333L134.162 17.0301L134.274 17.1268L134.421 17.193L134.615 17.2235L134.808 17.2083L134.971 17.1421L135.068 17.0912L135.215 17.0097L135.327 16.9283L135.521 16.7348L135.633 16.6075L135.73 16.4955L135.841 16.3835L135.923 16.2715L136.004 16.1442L136.101 15.9966L136.213 15.8031L136.325 15.6555L136.391 15.5282L136.457 15.3805L136.508 15.2533L136.574 15.1056L136.656 14.9122L136.737 14.734L136.803 14.5863L136.854 14.459L137.083 13.7819L137.15 13.5732L137.277 13.0539L137.328 12.8451L137.379 12.6822L137.409 12.504L137.358 12.3564L137.246 12.2902H137.099V12.2953Z"
            fill="black" />
        <path
            d="M144.881 17.3093L144.652 17.5028L144.392 17.6657L144.265 17.7319L144.005 17.8948L143.878 17.961L143.588 18.0577L143.425 18.1086L143.135 18.1595L143.038 18.1901L142.875 18.2206L142.748 18.2359H142.601L142.422 18.2512H142.275L141.985 18.2206L141.807 18.1697L141.659 18.1188L141.547 18.0679L141.399 18.017L141.272 17.9508L141.013 17.7879L140.901 17.6912L140.707 17.4621L140.626 17.3348L140.56 17.2075L140.478 17.0802L140.382 16.79L140.315 16.4998L140.285 16.2096L140.27 16.0467L140.285 15.8991V15.446L140.315 15.2983L140.346 15.171L140.376 15.0234L140.427 14.7332L140.458 14.5703L140.488 14.4226L140.539 14.2954L140.59 14.1477L140.656 14.0001L140.722 13.8728L140.773 13.7251L140.855 13.5317L140.952 13.3382L141.033 13.2109L141.13 13.0837L141.211 12.9716L141.308 12.8596L141.471 12.6L141.567 12.488L141.776 12.2793L142 12.0858L142.112 12.0043L142.239 11.9076L142.387 11.8109L142.565 11.6989L142.743 11.6021L142.87 11.5359L143.033 11.4698L143.13 11.4392L143.308 11.373L143.405 11.3425L143.568 11.2916L143.715 11.261L143.878 11.2457L144.026 11.2305H144.397L144.657 11.261L144.865 11.2916L145.013 11.3221L145.161 11.373L145.288 11.4392L145.578 11.6174L145.756 11.7141L145.868 11.8109L145.95 11.9076L146.046 12.0196L146.143 12.1469L146.336 12.5033L146.387 12.6509L146.403 12.7985L146.418 12.9258L146.484 13.216V13.7811L146.453 13.9746L146.438 14.1528L146.423 14.3157L146.326 14.7994L146.26 15.0234L146.209 15.1863L146.143 15.3492L146.077 15.5274L146.026 15.6751L145.929 15.8532L145.782 16.1434L145.7 16.3216L145.715 16.4336L145.843 16.4489H145.939L146.117 16.4336L146.229 16.4184L146.377 16.3878L146.54 16.3216L146.652 16.2555L146.911 16.0925L147.023 15.9958L147.232 15.7871L147.426 15.558L147.507 15.446L147.588 15.3187L147.67 15.2067L147.797 14.947L147.945 14.6721L147.996 14.5754L148.092 14.4277L148.24 14.3463L148.433 14.3768L148.561 14.5245L148.576 14.7026L148.525 14.8503L148.331 15.2372L148.25 15.3492L148.087 15.6089L148.021 15.7362L147.94 15.8482L147.843 15.9754L147.761 16.0874L147.665 16.1842L147.456 16.4082L147.359 16.5049L147.247 16.6017L147.135 16.6831L147.008 16.7798L146.896 16.846L146.637 16.9733L146.489 17.0395L146.362 17.07L145.782 17.1362L145.603 17.121L145.456 17.1057L145.329 17.0751L145.201 17.0599L145.089 17.1108L144.977 17.1922L144.881 17.3042V17.3093ZM141.679 15.5478L141.664 15.7412L141.679 15.9042L141.695 16.1129L141.725 16.3725L141.791 16.6322L141.903 16.8766L142.015 17.0395L142.143 17.1515L142.321 17.233L142.565 17.2991H142.774L142.936 17.2839L143.099 17.2533L143.247 17.1871L143.374 17.121L143.522 17.0395L143.649 16.958L143.761 16.8613L143.888 16.7646L143.954 16.6526V16.5558L143.888 16.4438L143.807 16.3165L143.776 16.1689L143.807 15.9754L143.873 15.782L143.985 15.6852L144.112 15.6038L144.26 15.5885L144.407 15.6191L144.519 15.6496L144.616 15.6343L144.682 15.5376L144.733 15.4103L144.927 14.8299L145.023 14.3921L145.054 14.1833L145.105 13.9084L145.135 13.3586L145.12 13.0989L145.054 12.824L144.957 12.5796L144.845 12.4167L144.718 12.32L144.524 12.2385L144.28 12.1876L144.071 12.1723H143.909L143.781 12.2029L143.634 12.2538L143.471 12.3505L143.344 12.432L143.196 12.5287L143.033 12.656L142.921 12.7527L142.809 12.8647L142.728 12.9767L142.631 13.0887L142.55 13.216L142.387 13.44L142.305 13.5673L141.98 14.2139L141.929 14.3615L141.898 14.4888L141.801 14.779L141.771 14.9063L141.72 15.0539L141.705 15.2016V15.3492L141.674 15.5427L141.679 15.5478Z"
            fill="black" />
        <path
            d="M152.418 17.3093L152.189 17.5028L151.929 17.6657L151.802 17.7319L151.542 17.8948L151.415 17.961L151.125 18.0577L150.962 18.1086L150.672 18.1595L150.575 18.1901L150.413 18.2206L150.285 18.2359H150.138L149.96 18.2512H149.812L149.522 18.2206L149.344 18.1697L149.196 18.1188L149.084 18.0679L148.937 18.017L148.809 17.9508L148.55 17.7879L148.438 17.6912L148.244 17.4621L148.163 17.3348L148.097 17.2075L148.015 17.0802L147.919 16.79L147.852 16.4998L147.822 16.2096L147.807 16.0467L147.822 15.8991V15.446L147.852 15.2983L147.883 15.171L147.914 15.0234L147.964 14.7332L147.995 14.5703L148.025 14.4226L148.076 14.2954L148.127 14.1477L148.193 14.0001L148.26 13.8728L148.311 13.7251L148.392 13.5317L148.489 13.3382L148.57 13.2109L148.667 13.0837L148.748 12.9716L148.845 12.8596L149.008 12.6L149.104 12.488L149.313 12.2793L149.537 12.0858L149.649 12.0043L149.776 11.9076L149.924 11.8109L150.102 11.6989L150.28 11.6021L150.407 11.5359L150.57 11.4698L150.667 11.4392L150.845 11.373L150.942 11.3425L151.105 11.2916L151.252 11.261L151.415 11.2457L151.563 11.2305H151.934L152.194 11.261L152.403 11.2916L152.55 11.3221L152.698 11.373L152.825 11.4392L153.115 11.6174L153.293 11.7141L153.405 11.8109L153.487 11.9076L153.583 12.0196L153.68 12.1469L153.873 12.5033L153.924 12.6509L153.94 12.7985L153.955 12.9258L154.021 13.216V13.7811L153.991 13.9746L153.975 14.1528L153.96 14.3157L153.863 14.7994L153.797 15.0234L153.746 15.1863L153.68 15.3492L153.614 15.5274L153.563 15.6751L153.466 15.8532L153.319 16.1434L153.237 16.3216L153.253 16.4336L153.38 16.4489H153.476L153.655 16.4336L153.767 16.4184L153.914 16.3878L154.077 16.3216L154.189 16.2555L154.449 16.0925L154.561 15.9958L154.769 15.7871L154.963 15.558L155.044 15.446L155.125 15.3187L155.207 15.2067L155.334 14.947L155.482 14.6721L155.533 14.5754L155.629 14.4277L155.777 14.3463L155.97 14.3768L156.098 14.5245L156.113 14.7026L156.062 14.8503L155.869 15.2372L155.787 15.3492L155.624 15.6089L155.558 15.7362L155.477 15.8482L155.38 15.9754L155.299 16.0874L155.202 16.1842L154.993 16.4082L154.896 16.5049L154.784 16.6017L154.673 16.6831L154.545 16.7798L154.433 16.846L154.174 16.9733L154.026 17.0395L153.899 17.07L153.319 17.1362L153.141 17.121L152.993 17.1057L152.866 17.0751L152.738 17.0599L152.626 17.1108L152.515 17.1922L152.418 17.3042V17.3093ZM149.216 15.5478L149.201 15.7412L149.216 15.9042L149.232 16.1129L149.262 16.3725L149.328 16.6322L149.44 16.8766L149.552 17.0395L149.68 17.1515L149.858 17.233L150.102 17.2991H150.311L150.474 17.2839L150.636 17.2533L150.784 17.1871L150.911 17.121L151.059 17.0395L151.186 16.958L151.298 16.8613L151.425 16.7646L151.492 16.6526V16.5558L151.425 16.4438L151.344 16.3165L151.313 16.1689L151.344 15.9754L151.41 15.782L151.522 15.6852L151.649 15.6038L151.797 15.5885L151.944 15.6191L152.056 15.6496L152.153 15.6343L152.219 15.5376L152.27 15.4103L152.464 14.8299L152.56 14.3921L152.591 14.1833L152.642 13.9084L152.672 13.3586L152.657 13.0989L152.591 12.824L152.494 12.5796L152.382 12.4167L152.255 12.32L152.062 12.2385L151.817 12.1876L151.609 12.1723H151.446L151.318 12.2029L151.171 12.2538L151.008 12.3505L150.881 12.432L150.733 12.5287L150.57 12.656L150.458 12.7527L150.346 12.8647L150.265 12.9767L150.168 13.0887L150.087 13.216L149.924 13.44L149.842 13.5673L149.517 14.2139L149.466 14.3615L149.435 14.4888L149.339 14.779L149.308 14.9063L149.257 15.0539L149.242 15.2016V15.3492L149.211 15.5427L149.216 15.5478Z"
            fill="black" />
        <path
            d="M156.495 10.9664L156.347 10.5286L156.332 10.3809V10.2333L156.363 10.0856L156.429 9.93798L156.51 9.82598L156.607 9.71397L156.719 9.61724L156.846 9.55105L156.994 9.52051H157.141L157.289 9.55105L157.416 9.63251L157.513 9.72925L157.579 9.85652L157.63 10.0042V10.442L157.599 10.6049V10.7322L157.63 10.8595L157.711 10.9715L157.823 11.0835L157.935 11.1802L158.047 11.3075L158.225 11.5162L158.337 11.613L158.546 11.8217L158.658 11.949L158.724 12.0305L158.836 12.1577L158.948 12.2545L159.045 12.3665L159.208 12.6261L159.259 12.7738L159.31 12.9672L159.36 13.176L159.345 13.3236L159.294 13.4713L159.228 13.5985L159.131 13.7105L158.969 13.9702L158.872 14.0822L158.79 14.2095L158.709 14.3215L158.612 14.4488L158.531 14.576L158.434 14.7033L158.353 14.8306L158.078 15.3804L158.027 15.5281L157.976 15.6554L157.945 15.803L157.915 15.9659L157.884 16.1136L157.869 16.2612V16.4241L157.935 16.75L158.017 16.8772L158.098 17.0249L158.21 17.1216L158.337 17.2031L158.5 17.2336H158.806L158.953 17.2031L159.101 17.1522L159.248 17.086L159.36 17.0045L159.605 16.8416L159.732 16.7449L159.844 16.6481L159.941 16.5514L160.037 16.4241L160.327 16.083L160.572 15.6961L160.653 15.5841L160.735 15.4364L160.816 15.3092L160.882 15.1819L160.964 15.0342L161.015 14.9375L161.111 14.7593L161.177 14.632L161.228 14.5048L161.294 14.3775L161.442 14.296L161.651 14.3469L161.798 14.5099V14.688L161.747 14.8357L161.62 15.1106L161.554 15.2379L161.473 15.3652L161.345 15.6248L161.182 15.8845L161.101 16.0321L161.035 16.1136L160.953 16.2612L160.791 16.5209L160.597 16.7805L160.47 16.9587L160.358 17.1216L160.165 17.3507L160.053 17.4475L159.859 17.6409L159.732 17.7377L159.584 17.8344L159.325 17.9617L159.177 18.0278L159.05 18.094L158.902 18.1449L158.775 18.1755L158.612 18.206H158.241L158.032 18.1908L157.706 18.1246L157.579 18.0737L157.416 17.9922L157.172 17.8293L157.06 17.7326L156.963 17.6358L156.866 17.5085L156.785 17.3965L156.719 17.2489L156.653 17.1216L156.622 16.974L156.592 16.8111L156.561 16.6634L156.546 16.5158V16.3681L156.612 15.7877L156.663 15.6401L156.714 15.5128L156.78 15.3652L156.861 15.187L156.958 15.0088L157.04 14.8611L157.152 14.683L157.263 14.52L157.345 14.3724L157.442 14.1942L157.569 14.016L157.666 13.8887L157.793 13.6596L157.971 13.4L158.052 13.2218L158.103 12.9774L158.073 12.7839L157.91 12.5243L157.813 12.397L157.554 12.1068L157.457 11.9948L157.33 11.8981L157.202 11.9286L157.136 12.0763L157.106 12.2239L157.055 12.3716L157.024 12.5192L156.994 12.6465L156.943 12.7941L156.795 13.1811L156.744 13.3287L156.693 13.456L156.643 13.6036L156.561 13.7971L156.48 13.9753L156.414 14.1229L156.332 14.3164L156.251 14.4946L156.169 14.6575L156.088 14.8357L155.991 15.0139L155.91 15.1412L155.813 15.2226H155.665L155.538 15.1412L155.441 15.0292L155.457 14.9019L155.508 14.7542L155.574 14.6066L155.625 14.4793L155.676 14.3317L155.803 14.0415L155.854 13.9447L155.92 13.7818L155.986 13.6545L156.037 13.5069L156.103 13.3592L156.154 13.2116L156.205 13.0843L156.332 12.7941L156.363 12.6465L156.414 12.4988L156.444 12.3512L156.51 12.2036L156.541 12.0559L156.571 11.9286L156.602 11.781L156.653 11.6333L156.683 11.4704V11.3228L156.653 11.1955L156.525 10.9359L156.495 10.9664Z"
            fill="black" />
        <path
            d="M164.999 14.5763V14.7545L164.948 14.9021L164.821 15.1617L164.673 15.4061L164.592 15.5538L164.525 15.681L164.429 15.8287L164.378 15.9254L164.296 16.0731L164.215 16.2003L164.133 16.3123L164.037 16.4396L163.955 16.5516L163.793 16.8113L163.502 17.1524L163.309 17.3611L163.197 17.4731L163.1 17.5851L162.988 17.6819L162.632 17.9568L162.52 18.0383L162.372 18.1044L162.225 18.1554L162.098 18.1859L161.808 18.2521H161.533L161.355 18.2368L161.227 18.1859L161.08 18.135L160.952 18.0535L160.841 17.9568L160.759 17.8448L160.678 17.7175L160.611 17.5699L160.581 17.4426L160.55 17.2949L160.535 17.1473V16.9997L160.566 16.7095L160.596 16.5618L160.647 16.4142L160.713 16.124L160.764 15.9967L160.795 15.8491L160.846 15.7014L160.897 15.5741L161.044 15.1363L161.059 15.009L161.09 14.8614L161.141 14.7137L161.171 14.5661L161.202 14.4388L161.299 14.1486L161.349 13.9551L161.4 13.7464L161.497 13.4562L161.528 13.3086L161.558 13.1966L161.589 13.0489L161.655 12.886L161.706 12.7587L161.802 12.3209L161.853 12.1732L161.904 11.9798L161.97 11.771L162.021 11.6234L162.087 11.4961L162.184 11.4146L162.332 11.3485L162.459 11.3332L162.622 11.3485L162.912 11.379L163.172 11.4757L163.253 11.5877V11.7354L163.222 11.883L163.172 12.0765L163.121 12.2852L163.024 12.5754L162.993 12.7027L162.963 12.8504L162.912 13.0133L162.861 13.2067L162.698 13.6904L162.668 13.838L162.602 14.0468L162.49 14.3879L162.459 14.5355L162.428 14.6628L162.398 14.8105L162.286 15.0854L162.255 15.233L162.143 15.6352L162.047 15.9254L162.016 16.0731L161.965 16.2818L161.914 16.5415L161.884 16.8164L161.914 17.0607L162.042 17.2389L162.22 17.2899L162.367 17.2746L162.515 17.2084L162.627 17.1269L162.754 17.0302L163.289 16.4956L163.385 16.3836L163.467 16.2716L163.563 16.1443L163.726 15.8847L163.823 15.7727L163.889 15.676L163.971 15.5487L164.067 15.401L164.133 15.2534L164.261 14.9785L164.454 14.5915L164.536 14.4643L164.683 14.3828L164.892 14.4133L165.019 14.5763H164.999ZM162.393 9.60728L162.474 9.48L162.602 9.368L162.729 9.28654L162.892 9.23562L163.039 9.20508H163.202L163.35 9.23562L163.477 9.31708L163.589 9.41382L163.701 9.52582L163.782 9.6531L163.833 9.80074L163.848 9.94839V10.1113L163.798 10.2589L163.716 10.3862L163.619 10.5135L163.507 10.6102L163.38 10.707L163.233 10.7732L163.07 10.8037L162.922 10.7884L162.759 10.7579L162.5 10.595L162.403 10.483L162.322 10.3557L162.291 10.208L162.276 10.0604L162.291 9.91275L162.322 9.74983L162.388 9.60219L162.393 9.60728Z"
            fill="black" />
        <path
            d="M22.5418 40.0011C21.4679 38.7283 19.8189 37.7355 17.6456 37.038C17.5642 37.0228 17.2435 37.0177 17.0094 37.0126C16.6939 37.0075 16.3885 37.0024 16.078 36.9769L15.6505 36.9464C12.7443 36.7529 5.01321 36.2438 1.37414 27.5125C-0.81439 22.2635 -0.381774 16.9126 2.59565 12.4477C5.33895 8.32894 9.91959 5.66626 14.2661 5.66626H14.4188C19.259 5.66626 22.7098 2.37228 22.7403 2.33664L25.0866 0.00488281L27.4329 2.357C27.4329 2.357 30.904 5.67135 35.7443 5.67135H35.8257C40.218 5.67135 44.819 8.33403 47.5674 12.4528C50.5448 16.9177 50.9775 22.2686 48.7889 27.5175C45.1499 36.2489 37.4187 36.758 34.5075 36.9515L34.0698 36.982C33.7746 37.0024 33.4641 37.0126 33.1587 37.0177C32.9195 37.0177 32.5989 37.0278 32.492 37.0533C30.3391 37.7457 28.6952 38.7385 27.6213 40.0113L25.0815 43.0151L22.5418 40.0113V40.0011Z"
            fill="black" />
        <path
            d="M23.8141 38.9267C22.5366 37.4146 20.6331 36.2437 18.1545 35.4545C17.8694 35.3629 17.4826 35.3578 17.0297 35.3476C16.7548 35.3476 16.48 35.3374 16.2051 35.3171L15.7674 35.2865C12.8918 35.0982 6.15316 34.6552 2.91108 26.8708C0.941401 22.1513 1.32312 17.3554 3.9799 13.364C6.42291 9.69323 10.4641 7.32075 14.266 7.32075H14.4136C20.0173 7.32075 23.865 3.55329 23.9057 3.51765L25.0865 2.34668L26.2622 3.52274C26.2978 3.55838 30.1456 7.32075 35.7492 7.32075H35.8358C39.7039 7.32075 43.7399 9.69323 46.1829 13.3589C48.8397 17.3504 49.2214 22.1462 47.2517 26.8657C44.0097 34.645 37.271 35.0931 34.3954 35.2814L33.9577 35.312C33.6828 35.3324 33.408 35.3374 33.1332 35.3425C32.6853 35.3527 32.2934 35.3578 32.0084 35.4495C29.5348 36.2437 27.6313 37.4095 26.3487 38.9216L25.0814 40.4235L23.8141 38.9216V38.9267Z"
            fill="#ED8A3E" />
        <path
            d="M24.9892 37.8121C23.0449 35.5109 20.322 34.3908 18.5712 33.8257C17.823 33.5864 17.0239 33.673 16.2401 33.617C13.7004 33.4235 7.36895 33.4184 4.35081 26.189C0.314751 16.5056 8.14766 8.90444 14.2247 8.94517C20.6885 8.99099 24.9892 4.65332 24.9892 4.65332C24.9892 4.65332 29.2899 8.9859 35.7537 8.94517C41.8307 8.90444 49.6687 16.5005 45.6275 26.189C42.6145 33.4184 36.2779 33.4235 33.7382 33.617C32.9544 33.6781 32.1553 33.5864 31.4072 33.8257C29.6563 34.3857 26.9334 35.5058 24.9892 37.8121Z"
            fill="#20743B" />
        <path
            d="M21.8703 16.9331C21.8703 16.9331 18.2465 13.4457 25.5551 11.7503C27.988 11.1852 29.749 11.3176 31.0112 11.7503C33.4746 12.5802 34.467 15.5229 33.2506 17.819C32.3294 19.5551 30.3801 21.2148 26.2575 20.4868C26.2575 20.4868 26.0692 20.4613 26.0234 20.6599C25.9776 20.8584 25.5348 24.3255 25.5348 24.3255C25.5348 24.3255 26.1201 25.0281 26.6341 24.9568C27.1482 24.8856 33.5509 26.9424 36.3756 18.1703C36.7777 16.923 36.8337 15.5636 36.3909 14.3316C35.7852 12.6209 34.1617 10.6965 29.978 10.4165C22.2571 9.90225 19.753 12.57 18.8827 13.9752C18.0123 15.3803 18.9539 18.3739 20.3332 18.2823C21.7125 18.1907 21.8703 16.9331 21.8703 16.9331Z"
            fill="white" />
        <path
            d="M27.2496 12.458C27.2496 12.458 24.3841 15.3956 21.5238 20.9093C18.6634 26.4231 17.7422 28.1948 17.7422 28.1948C17.7422 28.1948 20.2157 29.5389 21.88 29.0807C21.88 29.0807 22.4603 28.5868 23.3713 25.6747C23.7988 24.3102 27.1834 13.2726 28.2471 13.0282C28.2471 13.0282 27.7891 12.4376 27.2598 12.4631L27.2496 12.458Z"
            fill="white" />
        <path
            d="M86.3263 29.0349C86.3263 29.325 86.4128 29.5745 86.5807 29.7833C86.7487 29.992 87.0083 30.1702 87.3595 30.3229C88.2094 30.7048 88.7896 30.995 89.1001 31.1935C89.4106 31.3921 89.66 31.6059 89.8432 31.8299C90.0264 32.0539 90.1638 32.2881 90.2504 32.5274C90.3369 32.7667 90.3776 33.0416 90.3776 33.3573C90.3776 33.8256 90.2554 34.2278 90.0111 34.5588C89.7668 34.8897 89.4309 35.1443 88.9983 35.3174C88.5657 35.4905 88.0771 35.5821 87.5325 35.5821C87.3086 35.5821 87.0592 35.5465 86.7843 35.4803C86.5095 35.4141 86.2601 35.3123 86.0311 35.1799C85.9904 35.1646 85.9496 35.1493 85.914 35.1341C85.8784 35.1188 85.8377 35.1086 85.7817 35.1086C85.6341 35.1086 85.517 35.2155 85.4356 35.4243C85.3949 35.5006 85.3338 35.5414 85.2473 35.5414C85.2015 35.5414 85.1607 35.5312 85.1251 35.5057C85.0895 35.4803 85.0742 35.4497 85.0742 35.4141C85.1353 34.9508 85.1658 34.5639 85.1658 34.2431C85.1658 33.7951 85.1404 33.3776 85.0844 32.9907V32.9703C85.0844 32.9296 85.1048 32.899 85.1404 32.8685C85.176 32.838 85.2218 32.8227 85.2829 32.8227C85.3949 32.8227 85.4559 32.8634 85.4712 32.95C85.573 33.6169 85.8275 34.1362 86.2245 34.518C86.6215 34.8999 87.0948 35.0882 87.6343 35.0882C88.0924 35.0882 88.4741 34.9661 88.7795 34.7217C89.0848 34.4773 89.2426 34.1515 89.2426 33.7391C89.2426 33.454 89.1815 33.2045 89.0594 32.9958C88.9372 32.7819 88.7845 32.6038 88.6013 32.4459C88.4232 32.2932 88.2196 32.1608 88.0007 32.0437C87.7819 31.9317 87.5732 31.8248 87.3747 31.7281C87.1152 31.611 86.8556 31.4888 86.5909 31.3615C86.3314 31.2342 86.1023 31.0866 85.8936 30.9084C85.6901 30.7302 85.5221 30.5215 85.4 30.272C85.2727 30.0225 85.2116 29.712 85.2116 29.3403C85.2116 28.7039 85.4509 28.205 85.9344 27.8537C86.4128 27.5024 87.0744 27.3242 87.9193 27.3242C88.1433 27.3242 88.3316 27.3395 88.4792 27.3649C88.6268 27.3904 88.8049 27.4362 88.9932 27.5024C89.2172 27.5737 89.3648 27.6042 89.436 27.6042C89.5327 27.6042 89.5989 27.5635 89.6396 27.4871C89.665 27.4311 89.7261 27.4057 89.8177 27.4057C89.8585 27.4057 89.8941 27.4159 89.9348 27.4311C89.9755 27.4464 89.9959 27.4668 89.9959 27.4922V27.5075C89.9297 27.7264 89.8992 28.0166 89.8992 28.3781C89.8992 28.5868 89.9093 28.7701 89.9348 28.9381C89.9602 29.101 89.9806 29.2996 89.9959 29.5287C89.9959 29.5542 89.9755 29.5796 89.9348 29.6C89.8941 29.6203 89.8483 29.6305 89.8076 29.6305C89.7109 29.6305 89.6549 29.5949 89.6396 29.5287C89.5327 29.0501 89.4106 28.6937 89.2782 28.4596C89.1459 28.2304 88.9678 28.0624 88.7387 27.9657C88.5097 27.8639 88.1941 27.8181 87.787 27.8181C87.3493 27.8181 86.993 27.9301 86.7283 28.1541C86.4586 28.3781 86.3263 28.6734 86.3263 29.0349Z"
            fill="black" />
        <path
            d="M92.9531 33.9837C92.9531 34.3554 92.9735 34.5997 93.0142 34.7168C93.0549 34.8339 93.1261 34.9256 93.2228 34.9867C93.3195 35.0478 93.4773 35.0936 93.686 35.119C93.7725 35.1343 93.8132 35.1903 93.8132 35.2921C93.8132 35.3329 93.8031 35.3736 93.7827 35.4143C93.7623 35.455 93.7318 35.4703 93.686 35.4703C93.5689 35.4703 93.3857 35.455 93.1312 35.4296C92.8717 35.4041 92.6426 35.3889 92.434 35.3889C92.1795 35.3889 91.9352 35.4041 91.696 35.4296C91.4568 35.455 91.2277 35.4703 91.0038 35.4703C90.9274 35.4703 90.8867 35.4143 90.8867 35.3023C90.8867 35.1903 90.9274 35.1343 91.014 35.119C91.2226 35.0936 91.3804 35.063 91.4975 35.0172C91.6094 34.9714 91.696 34.9052 91.7469 34.8187C91.7978 34.7321 91.8283 34.6303 91.8385 34.5081C91.8487 34.3859 91.8487 34.2332 91.8487 34.0499V32.1509C91.8487 31.6214 91.8283 31.2701 91.7927 31.097C91.757 30.9239 91.6909 30.7966 91.5891 30.7203C91.4924 30.6439 91.299 30.5879 91.014 30.5523C90.9427 30.5523 90.9122 30.4962 90.9122 30.3792C90.9122 30.3384 90.9223 30.2977 90.9376 30.257C90.9529 30.2162 90.9783 30.201 91.014 30.201C91.3346 30.1755 91.696 30.1297 92.0879 30.0635C92.4696 29.9973 92.6833 29.9668 92.7292 29.9668C92.8768 29.9668 92.9531 30.0431 92.9531 30.201V33.9786V33.9837ZM92.3322 28.75C92.1388 28.75 91.9708 28.6889 91.8283 28.5718C91.6858 28.4547 91.6145 28.302 91.6145 28.1085C91.6145 27.915 91.6807 27.7674 91.8181 27.6452C91.9504 27.523 92.1184 27.4619 92.3118 27.4619C92.4899 27.4619 92.6477 27.523 92.7699 27.6503C92.8971 27.7776 92.9582 27.9354 92.9582 28.1187C92.9582 28.302 92.8971 28.4445 92.78 28.5667C92.663 28.6889 92.5154 28.75 92.3373 28.75H92.3322Z"
            fill="black" />
        <path
            d="M96.3277 33.9841C96.3277 34.3812 96.3888 34.6613 96.516 34.8191C96.6432 34.982 96.8519 35.0838 97.1522 35.1296C97.2387 35.1449 97.2845 35.206 97.2845 35.3078C97.2845 35.3537 97.2744 35.3944 97.2489 35.43C97.2235 35.4657 97.1929 35.4809 97.1522 35.4809L96.2004 35.4046L95.8085 35.3893C95.5541 35.3893 95.3149 35.4046 95.0858 35.43C94.8568 35.4555 94.643 35.4708 94.4343 35.4708C94.3936 35.4708 94.3682 35.4555 94.3478 35.4198C94.3275 35.3842 94.3173 35.3486 94.3173 35.3027C94.3173 35.1958 94.358 35.1347 94.4445 35.1195C94.6787 35.0787 94.8466 35.038 94.9484 34.9871C95.0502 34.9362 95.1164 34.8649 95.1571 34.7733C95.1978 34.6765 95.2182 34.4372 95.2182 34.0554V32.5688C95.2182 32.1768 95.2182 31.8509 95.2131 31.5964C95.2131 31.3418 95.1825 31.1382 95.1316 30.9854C95.0807 30.8378 94.9993 30.7309 94.8873 30.6647C94.7754 30.5985 94.6176 30.568 94.3987 30.5578C94.3122 30.5578 94.2715 30.4967 94.2715 30.3796C94.2715 30.3389 94.2817 30.3032 94.2969 30.2625C94.3122 30.2218 94.3377 30.2065 94.3682 30.2065C94.8161 30.1759 95.1978 30.1301 95.5032 30.0639C95.8085 30.0028 96.007 29.9672 96.0936 29.9672C96.2513 29.9672 96.3277 30.0487 96.3277 30.2167L96.3124 30.3338C96.2462 30.6952 96.2157 30.904 96.2157 30.96C96.2157 30.9753 96.2208 30.9854 96.231 30.9854L96.2615 30.96C96.3582 30.7869 96.5058 30.6138 96.7094 30.4356C96.913 30.2625 97.1318 30.125 97.3711 30.0283C97.6103 29.9316 97.8546 29.8857 98.109 29.8857C99.3 29.8857 99.8955 30.5781 99.8955 31.9629V33.9841C99.8955 34.3201 99.9159 34.5493 99.9515 34.6816C99.9871 34.814 100.058 34.9107 100.155 34.9769C100.252 35.0431 100.41 35.0889 100.623 35.1195C100.7 35.1347 100.74 35.1958 100.74 35.2977C100.74 35.4148 100.7 35.4708 100.623 35.4708C100.522 35.4708 100.343 35.4555 100.094 35.43C99.8446 35.4046 99.6054 35.3893 99.3713 35.3893C99.1168 35.3893 98.8878 35.4046 98.674 35.43C98.4602 35.4555 98.2872 35.4708 98.1396 35.4708C98.0989 35.4708 98.0632 35.4504 98.0429 35.4097C98.0225 35.3689 98.0123 35.3282 98.0123 35.2824C98.0123 35.1856 98.048 35.1347 98.1243 35.1195C98.3075 35.0838 98.445 35.038 98.5366 34.9769C98.6282 34.9158 98.6893 34.8344 98.7249 34.7274C98.7605 34.6256 98.7758 34.3965 98.7758 34.0503V32.2582C98.7758 31.7746 98.7453 31.4335 98.6791 31.24C98.6129 31.0465 98.5111 30.8887 98.3788 30.7716C98.2414 30.6545 98.048 30.5934 97.7986 30.5934C97.3252 30.5934 96.9639 30.7461 96.7043 31.0516C96.4447 31.3571 96.3226 31.7898 96.3226 32.36V33.9892L96.3277 33.9841Z"
            fill="black" />
        <path
            d="M102.578 32.5173C102.578 33.169 102.766 33.7087 103.138 34.1363C103.509 34.5589 103.977 34.7727 104.537 34.7727C105.097 34.7727 105.535 34.6454 105.906 34.3858L105.978 34.3603C106.018 34.3603 106.059 34.3858 106.1 34.4316C106.141 34.4774 106.161 34.5232 106.161 34.564C106.161 34.6403 106.044 34.7778 105.82 34.9713C105.591 35.1647 105.316 35.3073 104.99 35.3938C104.67 35.4804 104.334 35.5211 103.993 35.5211C103.514 35.5211 103.066 35.404 102.659 35.1647C102.252 34.9254 101.931 34.5894 101.692 34.1516C101.458 33.7137 101.336 33.2199 101.336 32.665C101.336 32.11 101.453 31.6416 101.692 31.214C101.931 30.7914 102.272 30.4605 102.72 30.2263C103.168 29.9921 103.682 29.875 104.268 29.875C104.782 29.875 105.214 29.9921 105.555 30.2263C105.901 30.4605 106.069 30.7609 106.069 31.1274C106.069 31.27 106.023 31.4023 105.927 31.5245C105.83 31.6467 105.682 31.7129 105.484 31.7129C105.321 31.7129 105.184 31.6722 105.077 31.5856C104.97 31.4991 104.914 31.3718 104.914 31.2089C104.914 31.0969 104.944 31.0052 105 30.9391C105.062 30.8678 105.092 30.7965 105.092 30.7354C105.092 30.5929 104.995 30.4859 104.802 30.4096C104.609 30.3332 104.4 30.2976 104.181 30.2976C103.682 30.2976 103.29 30.4961 103.005 30.8881C102.72 31.2802 102.578 31.8198 102.578 32.5071V32.5173Z"
            fill="black" />
        <path
            d="M108.151 32.401C108.111 32.401 108.09 32.4163 108.09 32.4417C108.09 32.4672 108.085 32.5028 108.085 32.5384C108.085 33.2614 108.248 33.8163 108.574 34.1982C108.9 34.58 109.368 34.7735 109.979 34.7735C110.589 34.7735 111.093 34.6462 111.439 34.3967C111.465 34.3713 111.485 34.3611 111.516 34.3611C111.556 34.3611 111.592 34.3865 111.638 34.4425C111.678 34.4985 111.699 34.5393 111.699 34.5749C111.699 34.6411 111.587 34.7735 111.363 34.9771C111.139 35.1808 110.89 35.3233 110.62 35.4048C110.345 35.4862 110.024 35.527 109.648 35.527C108.777 35.527 108.09 35.2775 107.597 34.7786C107.103 34.2796 106.854 33.5872 106.854 32.7065C106.854 32.1872 106.965 31.7086 107.195 31.2758C107.424 30.8431 107.739 30.502 108.151 30.2525C108.559 30.0081 109.012 29.8809 109.51 29.8809C110.162 29.8809 110.686 30.0947 111.098 30.5173C111.505 30.9398 111.709 31.4846 111.709 32.1464C111.709 32.3093 111.648 32.3959 111.531 32.3959H108.162L108.151 32.401ZM110.314 31.9835C110.391 31.9835 110.447 31.9631 110.477 31.9224C110.508 31.8817 110.528 31.7646 110.528 31.5813C110.528 31.2351 110.426 30.9347 110.223 30.6853C110.019 30.4358 109.755 30.3085 109.429 30.3085C109.067 30.3085 108.777 30.4256 108.553 30.6598C108.33 30.894 108.192 31.23 108.131 31.673L108.116 31.8613C108.116 31.9479 108.131 31.9886 108.167 31.9886H110.32L110.314 31.9835Z"
            fill="black" />
        <path
            d="M118.991 33.8918C118.991 34.1515 119.037 34.3653 119.129 34.5181C119.22 34.6759 119.363 34.7981 119.561 34.8897C119.76 34.9763 120.08 35.0526 120.528 35.1086C120.569 35.1188 120.605 35.1392 120.63 35.1799C120.656 35.2206 120.666 35.2614 120.666 35.3072C120.666 35.353 120.65 35.3937 120.625 35.4345C120.6 35.4752 120.554 35.4905 120.498 35.4905L119.979 35.4752C119.037 35.4192 118.472 35.3886 118.279 35.3886L117.765 35.4039C116.803 35.4599 116.248 35.4905 116.1 35.4905C116.044 35.4905 116.004 35.4701 115.978 35.4294C115.953 35.3886 115.938 35.3428 115.938 35.2919C115.938 35.1748 115.993 35.1137 116.105 35.0934C116.594 35.0323 116.94 34.9559 117.139 34.8693C117.342 34.7828 117.495 34.6606 117.597 34.5079C117.699 34.3551 117.754 34.1464 117.754 33.8918V29.2589C117.754 28.9279 117.704 28.7141 117.607 28.6174C117.505 28.5207 117.302 28.4697 116.986 28.4697C116.787 28.4697 116.518 28.485 116.177 28.5156H116.146C116.095 28.5156 116.055 28.4952 116.029 28.4545C115.999 28.4137 115.988 28.3628 115.988 28.3068C115.988 28.1948 116.029 28.1286 116.111 28.1032C116.564 27.9963 117.006 27.8792 117.439 27.757C118.279 27.5126 118.737 27.3955 118.813 27.3955C118.94 27.3955 119.001 27.4464 119.001 27.5533V33.8969L118.991 33.8918Z"
            fill="black" />
        <path
            d="M121.73 30.0281C121.73 29.5189 121.847 29.0607 122.076 28.6534C122.305 28.2512 122.636 27.9407 123.058 27.7167C123.481 27.4977 123.964 27.3857 124.509 27.3857C125.094 27.3857 125.577 27.5334 125.969 27.8236C126.356 28.1138 126.651 28.5211 126.85 29.0302C127.048 29.5444 127.15 30.1706 127.15 30.9088C127.15 31.7998 127.013 32.6144 126.743 33.3526C126.473 34.0908 126.102 34.6356 125.633 34.9919C125.165 35.3483 124.61 35.5214 123.979 35.5214C123.348 35.5214 122.819 35.4196 122.452 35.216C122.081 35.0123 121.898 34.7323 121.898 34.381C121.898 34.2028 121.954 34.045 122.071 33.9075C122.188 33.7752 122.346 33.7039 122.549 33.7039C122.676 33.7039 122.799 33.7446 122.916 33.8312C123.033 33.9177 123.094 34.0501 123.094 34.2334C123.094 34.3148 123.078 34.3759 123.043 34.4217C123.007 34.4676 122.992 34.5236 122.992 34.5897C122.992 34.9359 123.343 35.109 124.051 35.109C125.287 35.109 125.929 33.8973 125.964 31.479C125.705 31.8303 125.42 32.0747 125.109 32.2122C124.804 32.3445 124.458 32.4158 124.081 32.4158C123.323 32.4158 122.743 32.2071 122.335 31.7845C121.928 31.367 121.725 30.7765 121.725 30.0128L121.73 30.0281ZM122.926 30.0026C122.926 30.6695 123.048 31.1583 123.297 31.4638C123.542 31.7692 123.888 31.922 124.336 31.922C124.804 31.922 125.196 31.7489 125.501 31.3976C125.812 31.0463 125.964 30.6237 125.964 30.1248C125.964 29.3662 125.832 28.796 125.567 28.4142C125.303 28.0272 124.921 27.8389 124.412 27.8389C123.939 27.8389 123.572 28.0221 123.313 28.3836C123.053 28.7451 122.926 29.2898 122.926 30.0128V30.0026Z"
            fill="black" />
        <path
            d="M129.344 28.4901C129.075 28.4901 128.886 28.5257 128.784 28.597C128.683 28.6682 128.586 28.8057 128.499 29.0144L128.281 29.549C128.255 29.605 128.204 29.6356 128.113 29.6356C128.057 29.6356 128.001 29.6203 127.945 29.5948C127.889 29.5694 127.863 29.5388 127.863 29.5032C127.94 28.7446 128.082 28.2202 128.286 27.93C128.489 27.6398 128.805 27.4922 129.237 27.4922C129.823 27.4922 130.423 27.5278 131.034 27.6042C131.645 27.6806 132.088 27.7213 132.368 27.7213C132.648 27.7213 132.978 27.6602 133.37 27.5431H133.401C133.457 27.5431 133.513 27.5736 133.564 27.6347C133.615 27.6958 133.64 27.762 133.64 27.8231V27.8588C133.309 28.4951 132.729 29.3963 131.899 30.5723C131.482 31.1629 131.141 31.6669 130.866 32.0946C130.591 32.5223 130.378 32.8939 130.215 33.2147C130.052 33.5354 129.97 33.8561 129.97 34.1718C129.97 34.3144 130.001 34.4671 130.057 34.63C130.118 34.7878 130.149 34.9304 130.149 35.0628C130.149 35.1951 130.087 35.3071 129.96 35.3988C129.833 35.4853 129.685 35.5311 129.512 35.5311C129.38 35.5311 129.263 35.4853 129.161 35.3988C129.064 35.3122 129.014 35.1849 129.014 35.022C129.014 34.7827 129.07 34.4773 129.176 34.1056C129.288 33.734 129.441 33.3623 129.645 32.9957C129.848 32.6292 130.21 32.059 130.734 31.3004C131.263 30.5214 131.599 30.0225 131.736 29.8138C131.874 29.605 132.006 29.3963 132.139 29.1875C132.266 28.9788 132.332 28.8566 132.332 28.8261C132.332 28.7701 132.276 28.7395 132.169 28.7395C131.95 28.7395 131.569 28.6988 131.024 28.6122C130.479 28.5308 129.919 28.4901 129.344 28.4901Z"
            fill="black" />
        <path
            d="M135.126 27.5333C135.34 27.5333 135.777 27.5638 136.439 27.6249C137.096 27.6911 137.62 27.7216 138.007 27.7216C138.394 27.7216 138.653 27.518 138.831 27.1056C138.852 27.07 138.887 27.0547 138.933 27.0547C139.009 27.0547 139.07 27.07 139.116 27.0954C139.162 27.1209 139.182 27.1514 139.188 27.1871C139.188 27.2074 139.152 27.3398 139.086 27.574C139.02 27.8082 138.938 28.0169 138.841 28.19C138.745 28.3631 138.628 28.4955 138.485 28.5871C138.343 28.6788 138.185 28.7246 138.002 28.7297C137.584 28.7297 137.177 28.7042 136.78 28.6533C136.358 28.5973 135.889 28.5668 135.38 28.5617C135.324 29.0912 135.294 29.6206 135.294 30.1603V30.593C135.421 30.532 135.594 30.481 135.813 30.4454C136.032 30.4047 136.251 30.3894 136.475 30.3894C136.984 30.3894 137.452 30.4963 137.885 30.7051C138.317 30.9138 138.658 31.204 138.908 31.5756C139.157 31.9473 139.279 32.3546 139.279 32.8077C139.279 33.6681 138.994 34.3401 138.419 34.8187C137.844 35.2973 137.05 35.5366 136.032 35.5366C135.457 35.5366 135.004 35.45 134.668 35.2769C134.332 35.1038 134.164 34.8696 134.164 34.5743C134.164 34.4216 134.21 34.274 134.301 34.1365C134.393 33.999 134.531 33.9329 134.704 33.9329C134.866 33.9329 135.004 33.9838 135.111 34.0805C135.218 34.1772 135.274 34.2994 135.274 34.442C135.274 34.498 135.258 34.554 135.223 34.6202C135.182 34.6914 135.167 34.7424 135.167 34.7831C135.167 34.8849 135.258 34.9715 135.436 35.0325C135.615 35.0936 135.874 35.1293 136.22 35.1293C136.826 35.1293 137.269 34.9307 137.538 34.5285C137.808 34.1263 137.946 33.6019 137.946 32.9401C137.946 32.3495 137.788 31.8709 137.467 31.5146C137.147 31.1582 136.653 30.98 135.986 30.98C135.732 30.98 135.523 31.0105 135.36 31.0665L135.085 31.148C134.943 31.148 134.851 31.1225 134.805 31.0716C134.76 31.0207 134.739 30.9342 134.739 30.8171C134.739 29.7428 134.785 28.7093 134.882 27.7267C134.882 27.6962 134.902 27.6605 134.938 27.6147C134.978 27.5689 135.039 27.5485 135.126 27.5485V27.5333Z"
            fill="black" />
    </g>
    <defs>
        <clipPath id="clip0_714_2011">
            <rect width="165" height="43" fill="white" />
        </clipPath>
    </defs>
</svg>