<svg width="20" height="21" viewBox="0 0 20 21" fill="none" xmlns="http://www.w3.org/2000/svg">
    <g clip-path="url(#clip0_672_2910)">
        <path fill-rule="evenodd" clip-rule="evenodd"
            d="M10 19.182C10 19.182 17.5 14.182 17.5 8.34863C17.5 6.35951 16.7098 4.45185 15.3033 3.04533C13.8968 1.63881 11.9891 0.848633 10 0.848633C8.01088 0.848633 6.10322 1.63881 4.6967 3.04533C3.29018 4.45185 2.5 6.35951 2.5 8.34863C2.5 14.182 10 19.182 10 19.182ZM12.5 8.34863C12.5 9.72934 11.3807 10.8486 10 10.8486C8.61929 10.8486 7.5 9.72934 7.5 8.34863C7.5 6.96792 8.61929 5.84863 10 5.84863C11.3807 5.84863 12.5 6.96792 12.5 8.34863Z"
            fill="white" />
    </g>
    <defs>
        <clipPath id="clip0_672_2910">
            <rect width="20" height="20" fill="white" transform="translate(0 0.015625)" />
        </clipPath>
    </defs>
</svg>