<svg width="48" height="32" viewBox="0 0 48 32" fill="none" xmlns="http://www.w3.org/2000/svg">
<g id="Payment Method/Mastercard">
<rect x="0.5" y="0.5" width="47" height="31" rx="3.5" fill="white"/>
<g id="Vector">
<path d="M40 15.8884C40 21.3545 35.5777 25.7768 30.1116 25.7768C27.8043 25.7768 25.6893 24.9803 24.0138 23.6618C26.3211 21.8489 27.7768 19.0472 27.7768 15.8884C27.7768 12.7296 26.2936 9.9279 24.0138 8.11503C25.6893 6.79657 27.8043 6 30.1116 6C35.5777 6 40 10.4498 40 15.8884Z" fill="#F79E1B"/>
<path d="M24.0138 8.11503C24.0138 8.11503 24.0138 8.11502 24.0138 8.11503C26.2936 9.9279 27.7768 12.7296 27.7768 15.8884C27.7768 19.0472 26.3211 21.8489 24.0138 23.6618L23.9862 23.6618C21.7064 21.8764 20.2232 19.0472 20.2232 15.8885C20.2232 12.7297 21.7064 9.92796 23.9863 8.11508C23.9862 8.11506 23.9863 8.1151 23.9863 8.11508L24.0138 8.11503Z" fill="#FF5F00"/>
<path d="M20.2232 15.8885C20.2232 12.7297 21.7064 9.92796 23.9863 8.11508C22.3107 6.79663 20.1957 6.00004 17.8884 6.00004C12.4223 6.00004 8 10.4224 8 15.8885C8 21.3545 12.4223 25.7769 17.8884 25.7769C20.1957 25.7769 22.3106 24.9803 23.9862 23.6618C21.7064 21.8764 20.2232 19.0472 20.2232 15.8885Z" fill="#EB001B"/>
</g>
<rect x="0.5" y="0.5" width="47" height="31" rx="3.5" stroke="#CDD2D8"/>
</g>
</svg>
