<svg width="47" height="32" viewBox="0 0 47 32" fill="none" xmlns="http://www.w3.org/2000/svg">
<g id="Payment Method/PayPal">
<rect x="0.5" y="0.5" width="46" height="31" rx="3.5" fill="white"/>
<g id="Vector">
<path fill-rule="evenodd" clip-rule="evenodd" d="M30.666 10.9843C30.647 11.11 30.625 11.2384 30.6004 11.3704C29.7534 15.8301 26.8552 17.3708 23.154 17.3708H21.2694C20.8167 17.3708 20.4352 17.7077 20.3648 18.1656L19.1267 26.219C19.0808 26.5197 19.3068 26.7906 19.6026 26.7906H22.9451C23.3408 26.7906 23.6771 26.4957 23.7394 26.0955L23.7722 25.9214L24.4016 21.8261L24.442 21.6015C24.5036 21.1999 24.8406 20.9049 25.2363 20.9049H25.7362C28.9746 20.9049 31.5098 19.5567 32.2508 15.6552C32.5602 14.0255 32.4 12.6646 31.581 11.7075C31.3331 11.419 31.0257 11.1794 30.666 10.9843Z" fill="#298FC2"/>
<path fill-rule="evenodd" clip-rule="evenodd" d="M29.7795 10.622C29.6501 10.5833 29.5166 10.5483 29.3796 10.5166C29.2419 10.4857 29.1009 10.4584 28.9557 10.4344C28.4476 10.3502 27.8907 10.3103 27.2944 10.3103H22.2599C22.1358 10.3103 22.018 10.339 21.9127 10.3909C21.6804 10.5054 21.5079 10.7308 21.4661 11.0068L20.395 17.9628L20.3644 18.1656C20.4347 17.7077 20.8163 17.3708 21.2689 17.3708H23.1535C26.8548 17.3708 29.7529 15.8294 30.5999 11.3704C30.6252 11.2385 30.6465 11.11 30.6655 10.9843C30.4513 10.8677 30.2192 10.768 29.9692 10.683C29.9075 10.662 29.8438 10.6417 29.7795 10.622Z" fill="#22284F"/>
<path fill-rule="evenodd" clip-rule="evenodd" d="M21.4661 11.0068C21.5079 10.7308 21.6806 10.5054 21.9129 10.3917C22.019 10.3396 22.136 10.3109 22.2601 10.3109H27.2946C27.891 10.3109 28.4478 10.351 28.9559 10.4352C29.1012 10.459 29.2421 10.4865 29.3799 10.5174C29.5168 10.5489 29.6503 10.5841 29.7798 10.6226C29.844 10.6423 29.9077 10.6628 29.9701 10.683C30.22 10.768 30.4523 10.8685 30.6665 10.9843C30.9186 9.33629 30.6644 8.21419 29.7955 7.19809C28.8374 6.07933 27.1084 5.60059 24.8958 5.60059H18.4724C18.0204 5.60059 17.6349 5.93751 17.5651 6.39619L14.8897 23.786C14.8369 24.13 15.0957 24.4404 15.434 24.4404H19.3996L21.4661 11.0068Z" fill="#28356A"/>
</g>
<rect x="0.5" y="0.5" width="46" height="31" rx="3.5" stroke="#CDD2D8"/>
</g>
</svg>
