<svg width="131" height="24" viewBox="0 0 131 24" fill="none" xmlns="http://www.w3.org/2000/svg">
    <path
        d="M12.537 0L16.2303 6.93232L23.9849 8.2918L18.5128 13.9357L19.6122 21.7082L12.537 18.264L5.46184 21.7082L6.56123 13.9357L1.08913 8.2918L8.84379 6.93232L12.537 0Z"
        fill="#0F9918" />
    <path
        d="M39.0185 0L42.7117 6.93232L50.4664 8.2918L44.9943 13.9357L46.0937 21.7082L39.0185 18.264L31.9433 21.7082L33.0427 13.9357L27.5706 8.2918L35.3252 6.93232L39.0185 0Z"
        fill="#0F9918" />
    <path
        d="M65.4999 0L69.1932 6.93232L76.9478 8.2918L71.4757 13.9357L72.5751 21.7082L65.4999 18.264L58.4247 21.7082L59.5241 13.9357L54.052 8.2918L61.8067 6.93232L65.4999 0Z"
        fill="#0F9918" />
    <path
        d="M91.9814 0L95.6746 6.93232L103.429 8.2918L97.9572 13.9357L99.0566 21.7082L91.9814 18.264L84.9062 21.7082L86.0056 13.9357L80.5335 8.2918L88.2881 6.93232L91.9814 0Z"
        fill="#0F9918" />
    <path
        d="M118.463 0L122.156 6.93232L129.911 8.2918L124.439 13.9357L125.538 21.7082L118.463 18.264L111.388 21.7082L112.487 13.9357L107.015 8.2918L114.77 6.93232L118.463 0Z"
        fill="#CDD2D8" />
</svg>