<svg width="25" height="25" viewBox="0 0 25 25" fill="none" xmlns="http://www.w3.org/2000/svg">
    <path
        d="M6.54653 15.0156C7.04101 15.0157 7.52441 14.9277 7.93558 14.7629C8.34676 14.5981 8.66724 14.3638 8.85651 14.0897C9.04577 13.8156 9.09531 13.514 8.99885 13.223C8.9024 12.932 8.66429 12.6648 8.31464 12.455C7.96499 12.2452 7.5195 12.1023 7.03452 12.0444C6.54953 11.9866 6.04683 12.0163 5.59001 12.1298C5.13318 12.2434 4.74273 12.4357 4.46806 12.6824C4.19338 12.9291 4.04681 13.2191 4.04688 13.5158C4.04697 13.9136 4.31035 14.295 4.77911 14.5763C5.24786 14.8575 5.88361 15.0156 6.54653 15.0156Z"
        fill="white" />
    <path
        d="M18.0469 15.0156C19.1514 15.0156 20.0469 14.3441 20.0469 13.5156C20.0469 12.6872 19.1514 12.0156 18.0469 12.0156C16.9423 12.0156 16.0469 12.6872 16.0469 13.5156C16.0469 14.3441 16.9423 15.0156 18.0469 15.0156Z"
        fill="white" />
    <path
        d="M1.05257 13.1201C1.05257 16.129 3.51337 18.5675 6.54911 18.5675C7.93486 18.5694 9.2698 18.0505 10.2848 17.1154L12.0467 19.0156L13.8087 17.1165C14.8236 18.0508 16.1581 18.5692 17.5433 18.5672C20.5793 18.5672 23.0423 16.1282 23.0423 13.1198C23.0431 12.3618 22.8839 11.6121 22.5749 10.9187C22.266 10.2254 21.8141 9.60375 21.2483 9.09376L23.0469 7.15436H19.0597C16.9933 5.76083 14.5518 5.01563 12.0524 5.01562C9.55307 5.01563 7.11153 5.76083 5.0452 7.15436H1.04688L2.84544 9.09376C2.27982 9.60387 1.82811 10.2256 1.51935 10.919C1.21058 11.6124 1.05158 12.3621 1.05257 13.1201ZM21.2624 13.1201C21.2624 13.8492 21.0442 14.562 20.6355 15.1683C20.2267 15.7746 19.6458 16.2471 18.966 16.5261C18.2863 16.8052 17.5383 16.8782 16.8167 16.7359C16.0952 16.5937 15.4323 16.2425 14.9121 15.727C14.3918 15.2114 14.0375 14.5544 13.894 13.8393C13.7505 13.1241 13.8241 12.3829 14.1057 11.7092C14.3873 11.0356 14.864 10.4598 15.4758 10.0547C16.0875 9.64956 16.8067 9.43334 17.5425 9.43334C18.5291 9.43334 19.4752 9.82176 20.1729 10.5132C20.8705 11.2045 21.2624 12.1423 21.2624 13.1201ZM12.0459 6.79786C13.4637 6.79612 14.8676 7.0743 16.1757 7.61618C13.828 8.50649 12.0478 10.588 12.0478 13.0137C12.0478 10.5877 10.2671 8.50595 7.91911 7.61591C9.22629 7.07445 10.6292 6.79637 12.0459 6.79786ZM6.54911 9.43334C7.28484 9.43334 8.00406 9.64956 8.61579 10.0547C9.22753 10.4598 9.70433 11.0356 9.98588 11.7092C10.2674 12.3829 10.3411 13.1241 10.1976 13.8393C10.054 14.5544 9.69974 15.2114 9.1795 15.727C8.65926 16.2425 7.99643 16.5937 7.27483 16.7359C6.55324 16.8782 5.80528 16.8052 5.12555 16.5261C4.44583 16.2471 3.86485 15.7746 3.4561 15.1683C3.04735 14.562 2.82918 13.8492 2.82918 13.1201C2.82918 12.1423 3.2211 11.2045 3.91872 10.5132C4.61634 9.82176 5.56252 9.43334 6.54911 9.43334Z"
        fill="white" />
</svg>