<svg width="48" height="32" viewBox="0 0 48 32" fill="none" xmlns="http://www.w3.org/2000/svg">
<g id="Payment Method/Visa">
<rect x="0.5" y="0.5" width="47" height="31" rx="3.5" fill="white"/>
<g id="Vector">
<path d="M32.4982 10.4935C31.9071 10.259 30.9694 10 29.8099 10C26.85 10 24.7657 11.5784 24.7529 13.835C24.7283 15.4999 26.2452 16.4246 27.3798 16.9797C28.5394 17.547 28.9336 17.9172 28.9336 18.4229C28.9218 19.1994 27.9965 19.5574 27.1336 19.5574C25.937 19.5574 25.2958 19.3729 24.3214 18.9408L23.9267 18.7556L23.5073 21.3577C24.2103 21.678 25.5054 21.9622 26.85 21.9746C29.995 21.9746 32.0424 20.4207 32.0667 18.0159C32.0787 16.6963 31.2777 15.6852 29.5508 14.859C28.5025 14.3286 27.8605 13.971 27.8605 13.4283C27.8728 12.935 28.4035 12.4297 29.5869 12.4297C30.5613 12.4049 31.2772 12.6391 31.8195 12.8735L32.0906 12.9966L32.4982 10.4935Z" fill="#3362AB"/>
<path d="M21.6329 21.8019H18.6356L20.5104 10.2101H23.5074L21.6329 21.8019Z" fill="#3362AB"/>
<path fill-rule="evenodd" clip-rule="evenodd" d="M40.1816 10.2101H37.8632C37.1483 10.2101 36.6051 10.4196 36.2966 11.1719L31.8446 21.8017H34.9895C34.9895 21.8017 35.5073 20.371 35.6186 20.0629H39.4668C39.5528 20.4698 39.8244 21.8017 39.8244 21.8017H42.5996L40.1816 10.2101ZM36.4818 17.6953C36.7287 17.0294 37.6785 14.452 37.6785 14.452C37.6735 14.462 37.7121 14.3549 37.7697 14.1952L37.7704 14.1933L37.7709 14.192C37.8569 13.9535 37.9846 13.5995 38.0728 13.3423L38.2823 14.3411C38.2823 14.3411 38.8499 17.1158 38.9731 17.6953H36.4818Z" fill="#3362AB"/>
<path d="M16.1322 10.2101L13.1969 18.1146L12.8762 16.5115L12.8759 16.5105L11.8279 11.1845C11.6553 10.4442 11.1249 10.2345 10.4712 10.2101H5.64894L5.59961 10.4443C6.77575 10.7451 7.8277 11.1785 8.74942 11.7174L11.4209 21.7896H14.5904L19.3016 10.2101H16.1322Z" fill="#3362AB"/>
</g>
<rect x="0.5" y="0.5" width="47" height="31" rx="3.5" stroke="#CDD2D8"/>
</g>
</svg>
