<svg width="24" height="24" viewBox="0 0 24 24" fill="none" xmlns="http://www.w3.org/2000/svg">
    <g clip-path="url(#clip0_2_38830)">
        <path
            d="M2.18164 0H21.8184C23.0226 0 24 0.977437 24 2.18164V21.8184C24 23.0226 23.0226 24 21.8184 24H2.18164C0.977437 24 0 23.0226 0 21.8184V2.18164C0 0.977437 0.977437 0 2.18164 0Z"
            fill="#FEDB00" />
        <path
            d="M9.95679 7.50586C9.76717 7.52052 9.69483 7.58797 9.52965 7.84112C8.42905 9.52036 5.33155 14.2707 4.83599 15.0605C4.42449 15.7173 4.26712 16.2442 4.39908 16.7671C4.51148 17.2558 4.88975 17.5959 5.48403 17.725C5.63456 17.7406 5.77922 17.6966 5.87892 17.5705C6.68139 16.5794 11.1796 10.5437 12.0221 9.41284C12.1375 9.25938 12.1091 9.19585 12.0446 9.06487C11.8882 8.74721 11.3027 8.10308 10.8365 7.80007C10.5247 7.59774 10.2207 7.50391 10.0105 7.50391C9.99198 7.50391 9.97438 7.50488 9.95679 7.50684"
            fill="black" />
        <path
            d="M20.2407 17.3241C19.3033 15.3155 14.7573 5.935 13.773 3.77389C13.2647 2.65863 12.733 1.2648 12.2599 0H6.60544C6.68754 1.90991 6.71393 2.87464 6.40702 3.7778C5.86552 5.36418 4.11102 7.0268 2.89802 8.31311C2.47967 8.75491 4.18042 9.94836 5.98183 8.53792C6.63476 8.02476 7.66693 7.01409 8.50558 6.35823C8.88384 6.05914 9.37452 5.91936 9.87399 5.99267C10.566 6.09335 11.041 6.41297 11.5259 6.99454C12.0175 7.58296 12.4818 8.38153 13.1152 9.41663C14.3096 11.3705 15.6526 13.5815 17.0924 15.8667C17.8245 17.0299 18.7999 17.5167 20.1361 17.4844C20.2661 17.4815 20.2837 17.4082 20.2426 17.3231L20.2407 17.3241Z"
            fill="black" />
        <path
            d="M2.16797 19.6426V19.6807C2.17677 20.8438 3.14247 21.8125 4.30562 21.8213C4.30562 21.8213 19.6358 21.8311 19.6406 21.8311C20.8331 21.8311 21.8086 20.8429 21.8174 19.6797V19.6426H2.16797Z"
            fill="black" />
    </g>
    <defs>
        <clipPath id="clip0_2_38830">
            <rect width="24" height="24" fill="white" />
        </clipPath>
    </defs>
</svg>