<svg width="19" height="19" viewBox="0 0 19 19" fill="none" xmlns="http://www.w3.org/2000/svg">
    <g clip-path="url(#clip0_2_38960)">
        <path
            d="M1.68311 0.015625H16.4106C17.3138 0.015625 18.0469 0.748703 18.0469 1.65186V16.3794C18.0469 17.2825 17.3138 18.0156 16.4106 18.0156H1.68311C0.779953 18.0156 0.046875 17.2825 0.046875 16.3794V1.65186C0.046875 0.748703 0.779953 0.015625 1.68311 0.015625Z"
            fill="#FEDB00" />
        <path
            d="M7.51496 5.64502C7.37274 5.65602 7.31849 5.7066 7.1946 5.89647C6.36915 7.1559 4.04603 10.7187 3.67436 11.311C3.36573 11.8036 3.24771 12.1987 3.34667 12.5909C3.43098 12.9575 3.71468 13.2126 4.16039 13.3094C4.27328 13.3211 4.38178 13.2881 4.45655 13.1935C5.05841 12.4502 8.43204 7.92343 9.06395 7.07526C9.15045 6.96016 9.12919 6.91251 9.08081 6.81428C8.96352 6.57603 8.5244 6.09293 8.17473 5.86568C7.94087 5.71393 7.71289 5.64355 7.55527 5.64355C7.54135 5.64355 7.52815 5.64429 7.51496 5.64575"
            fill="black" />
        <path
            d="M15.2279 13.0087C14.5249 11.5022 11.1153 4.46688 10.3771 2.84604C9.9959 2.0096 9.59711 0.964228 9.2423 0.015625H5.00144C5.06302 1.44806 5.08281 2.17161 4.85263 2.84897C4.4465 4.03876 3.13063 5.28572 2.22088 6.25045C1.90712 6.58181 3.18268 7.47689 4.53374 6.41906C5.02343 6.0342 5.79756 5.27619 6.42655 4.7843C6.71025 4.55998 7.07825 4.45515 7.45285 4.51013C7.97187 4.58563 8.32815 4.82535 8.69176 5.26153C9.06049 5.70285 9.40871 6.30177 9.88374 7.0781C10.7796 8.54352 11.7868 10.2017 12.8666 11.9157C13.4157 12.788 14.1473 13.1531 15.1494 13.1289C15.2469 13.1267 15.2601 13.0717 15.2293 13.008L15.2279 13.0087Z"
            fill="black" />
        <path
            d="M1.67285 14.748V14.7766C1.67945 15.649 2.40373 16.3755 3.27609 16.3821C3.27609 16.3821 14.7737 16.3894 14.7774 16.3894C15.6717 16.3894 16.4033 15.6483 16.4099 14.7759V14.748H1.67285Z"
            fill="black" />
    </g>
    <defs>
        <clipPath id="clip0_2_38960">
            <rect width="18" height="18" fill="white" transform="translate(0.046875 0.015625)" />
        </clipPath>
    </defs>
</svg>