<svg width="44" height="44" viewBox="0 0 44 44" fill="none" xmlns="http://www.w3.org/2000/svg">
<rect width="44" height="44" rx="5" fill="#FBBC05" fill-opacity="0.1"/>
<g clip-path="url(#clip0_714_2000)">
<path d="M13.818 12H30.182C31.1855 12 32 12.8145 32 13.818V30.182C32 31.1855 31.1855 32 30.182 32H13.818C12.8145 32 12 31.1855 12 30.182V13.818C12 12.8145 12.8145 12 13.818 12Z" fill="#FEDB00"/>
<path d="M20.2973 18.2546C20.1393 18.2668 20.079 18.323 19.9414 18.5339C19.0242 19.9333 16.443 23.8919 16.03 24.5501C15.6871 25.0974 15.5559 25.5365 15.6659 25.9722C15.7596 26.3795 16.0748 26.663 16.57 26.7705C16.6955 26.7835 16.816 26.7469 16.8991 26.6418C17.5678 25.8159 21.3163 20.7861 22.0184 19.8437C22.1145 19.7158 22.0909 19.6629 22.0372 19.5537C21.9068 19.289 21.4189 18.7522 21.0304 18.4997C20.7706 18.3311 20.5172 18.2529 20.3421 18.2529C20.3266 18.2529 20.312 18.2537 20.2973 18.2554" fill="black"/>
<path d="M28.8669 26.4368C28.0858 24.7629 24.2974 16.9458 23.4772 15.1449C23.0536 14.2155 22.6105 13.054 22.2163 12H17.5042C17.5726 13.5916 17.5946 14.3955 17.3389 15.1482C16.8876 16.4701 15.4255 17.8557 14.4147 18.9276C14.0661 19.2958 15.4834 20.2903 16.9845 19.1149C17.5286 18.6873 18.3888 17.8451 19.0877 17.2985C19.4029 17.0493 19.8118 16.9328 20.228 16.9939C20.8047 17.0778 21.2005 17.3441 21.6046 17.8288C22.0143 18.3191 22.4012 18.9846 22.929 19.8472C23.9243 21.4754 25.0435 23.3179 26.2433 25.2223C26.8534 26.1916 27.6663 26.5972 28.7798 26.5703C28.8881 26.5679 28.9028 26.5068 28.8685 26.4359L28.8669 26.4368Z" fill="black"/>
<path d="M13.8066 28.3691V28.4009C13.814 29.3702 14.6187 30.1774 15.588 30.1847C15.588 30.1847 28.3631 30.1929 28.3672 30.1929C29.3609 30.1929 30.1738 29.3694 30.1812 28.4001V28.3691H13.8066Z" fill="black"/>
</g>
<defs>
<clipPath id="clip0_714_2000">
<rect width="20" height="20" fill="white" transform="translate(12 12)"/>
</clipPath>
</defs>
</svg>
