<svg width="32" height="32" viewBox="0 0 32 32" fill="none" xmlns="http://www.w3.org/2000/svg">
    <rect width="32" height="32" rx="16" fill="#D42322" />
    <path
        d="M23.0683 10.0851C24.1233 10.9575 27.0175 13.3505 26.5459 15.0304C26.3278 15.7849 25.4613 16.0266 24.8188 16.2623C23.3392 16.7987 21.8185 17.2231 20.2742 17.5354C19.0246 17.7889 16.3544 18.3429 16.8496 16.1325C17.044 15.2779 17.7337 14.5528 18.2878 13.9103C19.4254 12.5724 20.5867 11.1576 21.96 10.0613C22.072 9.97284 22.2076 9.9493 22.3255 9.96705C22.5554 9.87292 22.8324 9.88475 23.0683 10.0851Z"
        fill="white" />
    <path
        d="M21.5124 27.7212C20.587 26.9726 19.9327 25.7997 19.3668 24.7741C18.8127 23.7839 17.9404 22.4752 17.793 21.3259C17.4925 18.9622 20.917 20.3829 21.9014 20.7247C23.2099 21.1845 26.7171 21.6914 26.3281 23.7367C26.0039 25.4047 23.9939 27.4383 22.3141 27.6977C22.2965 27.7036 22.2728 27.6977 22.2493 27.6977C22.2434 27.7036 22.2375 27.7095 22.2317 27.7153C22.1845 27.7388 22.1315 27.7684 22.0784 27.792C21.8779 27.8982 21.6834 27.8569 21.5124 27.7212Z"
        fill="white" />
    <path
        d="M13.8555 21.639C15.7181 20.8668 15.889 22.9475 15.8772 24.2089C15.8596 25.712 15.8124 27.2209 15.7004 28.718C15.6591 29.3252 15.6827 30.0561 15.1051 30.4392C14.3919 30.9108 13.0185 30.5394 12.2816 30.3096C12.2581 30.2978 12.2345 30.2861 12.2109 30.2801C10.6608 30.0091 8.76867 29.2958 8.58593 27.8635C8.56818 27.6985 8.63312 27.5511 8.7333 27.4391C8.7805 27.3506 8.82757 27.2682 8.88068 27.1915C9.11062 26.8733 9.37579 26.5903 9.64109 26.3015C10.089 25.6355 10.5724 24.993 11.0851 24.374C11.8278 23.4781 12.7414 22.0987 13.8555 21.639Z"
        fill="white" />
    <path
        d="M14.1264 15.1783C11.4091 12.9443 8.76249 9.48434 7.39495 6.28374C6.35162 3.84933 9.00413 2.36399 11.0494 1.69205C13.808 0.784264 14.9043 1.57413 15.1813 4.33274C15.4113 6.70812 15.5174 9.10124 15.4996 11.4885C15.4937 12.4964 15.7766 14.1232 15.1872 15.031C15.2815 15.4024 14.7216 15.6676 14.4033 15.4141C14.3561 15.3787 14.309 15.3316 14.2559 15.2903C14.2088 15.2608 14.1676 15.2255 14.1264 15.1783Z"
        fill="white" />
    <path
        d="M13.8321 18.6379C14.0502 19.6046 13.3664 19.9936 12.5648 20.3591C11.1384 21.0016 9.64123 21.5144 8.13815 21.9388C7.26572 22.1805 5.92776 22.7581 5.08492 22.1156C4.44834 21.6324 4.40706 20.6244 4.34816 19.8934C4.21853 18.2607 4.46609 14.3645 6.72946 14.1995C7.83761 14.1229 9.22276 15.1131 10.1306 15.6319C11.3389 16.3275 12.6357 17.1231 13.5374 18.2137C13.6729 18.2902 13.7849 18.4257 13.8321 18.6379Z"
        fill="white" />
</svg>