<svg width="25" height="25" viewBox="0 0 25 25" fill="none" xmlns="http://www.w3.org/2000/svg">
    <path
        d="M17.3481 7.58043C18.1394 8.23475 20.31 10.0295 19.9563 11.2894C19.7927 11.8553 19.1428 12.0365 18.661 12.2133C17.5513 12.6156 16.4108 12.9339 15.2525 13.1682C14.3153 13.3583 12.3127 13.7738 12.684 12.116C12.8299 11.475 13.3471 10.9312 13.7627 10.4493C14.6159 9.44588 15.4869 8.38483 16.5169 7.56259C16.6009 7.49623 16.7025 7.47858 16.791 7.49189C16.9634 7.42129 17.1712 7.43016 17.3481 7.58043Z"
        fill="white" />
    <path
        d="M16.1814 20.8068C15.4874 20.2454 14.9966 19.3656 14.5722 18.5964C14.1566 17.8538 13.5024 16.8723 13.3919 16.0103C13.1665 14.2376 15.7349 15.303 16.4732 15.5594C17.4546 15.9042 20.085 16.2844 19.7932 17.8184C19.5501 19.0694 18.0425 20.5946 16.7827 20.7891C16.7695 20.7936 16.7517 20.7891 16.7341 20.7891C16.7296 20.7936 16.7252 20.798 16.7209 20.8024C16.6855 20.82 16.6457 20.8422 16.6059 20.8598C16.4555 20.9395 16.3097 20.9085 16.1814 20.8068Z"
        fill="white" />
    <path
        d="M10.4387 16.2446C11.8357 15.6655 11.9639 17.226 11.955 18.1721C11.9418 19.2994 11.9064 20.431 11.8224 21.5539C11.7914 22.0093 11.8092 22.5575 11.3759 22.8448C10.841 23.1985 9.81101 22.9199 9.25835 22.7476C9.2407 22.7387 9.22296 22.7299 9.20531 22.7255C8.04269 22.5222 6.62362 21.9873 6.48656 20.913C6.47325 20.7893 6.52196 20.6787 6.5971 20.5947C6.63249 20.5284 6.66779 20.4665 6.70763 20.409C6.88008 20.1703 7.07896 19.9581 7.27794 19.7415C7.61388 19.242 7.97643 18.7601 8.36098 18.2959C8.91798 17.6239 9.60316 16.5894 10.4387 16.2446Z"
        fill="white" />
    <path
        d="M10.6417 11.3996C8.60369 9.72412 6.61874 7.12913 5.59309 4.72867C4.81059 2.90287 6.79997 1.78886 8.33392 1.28491C10.4029 0.604067 11.2251 1.19647 11.4329 3.26542C11.6053 5.04696 11.6849 6.8418 11.6716 8.63221C11.6671 9.38819 11.8793 10.6083 11.4373 11.2891C11.508 11.5677 11.0881 11.7666 10.8493 11.5765C10.8139 11.5499 10.7786 11.5145 10.7388 11.4836C10.7035 11.4615 10.6726 11.435 10.6417 11.3996Z"
        fill="white" />
    <path
        d="M10.4209 13.995C10.5845 14.72 10.0717 15.0118 9.4705 15.2859C8.40067 15.7678 7.2778 16.1524 6.15049 16.4707C5.49617 16.6519 4.4927 17.0852 3.86056 16.6033C3.38313 16.2409 3.35217 15.4849 3.308 14.9367C3.21078 13.7121 3.39644 10.79 5.09397 10.6662C5.92508 10.6088 6.96395 11.3514 7.64479 11.7405C8.55104 12.2622 9.52365 12.8589 10.2 13.6768C10.3015 13.7342 10.3855 13.8359 10.4209 13.995Z"
        fill="white" />
</svg>