<svg width="44" height="44" viewBox="0 0 44 44" fill="none" xmlns="http://www.w3.org/2000/svg">
<rect width="44" height="44" rx="5" fill="#D60000" fill-opacity="0.1"/>
<path d="M26.4177 18.3037C27.0771 18.8489 28.8859 20.3446 28.5912 21.3945C28.4549 21.8661 27.9133 22.0171 27.5117 22.1644C26.587 22.4997 25.6366 22.7649 24.6714 22.9601C23.8904 23.1186 22.2215 23.4648 22.531 22.0833C22.6525 21.5492 23.0835 21.096 23.4299 20.6944C24.1409 19.8582 24.8667 18.974 25.725 18.2888C25.795 18.2335 25.8797 18.2188 25.9534 18.2299C26.0971 18.1711 26.2703 18.1785 26.4177 18.3037Z" fill="#C41200"/>
<path d="M25.4456 29.3256C24.8672 28.8578 24.4583 28.1247 24.1046 27.4837C23.7583 26.8648 23.2131 26.0469 23.121 25.3286C22.9332 23.8513 25.0735 24.7392 25.6888 24.9528C26.5066 25.2402 28.6986 25.557 28.4554 26.8353C28.2528 27.8778 26.9965 29.1488 25.9467 29.3109C25.9357 29.3146 25.9209 29.3109 25.9062 29.3109C25.9025 29.3146 25.8988 29.3183 25.8952 29.3219C25.8657 29.3367 25.8325 29.3551 25.7994 29.3698C25.674 29.4362 25.5525 29.4104 25.4456 29.3256Z" fill="#C41200"/>
<path d="M20.6595 25.5235C21.8237 25.0409 21.9305 26.3413 21.9231 27.1297C21.9121 28.0691 21.8826 29.0122 21.8126 29.9479C21.7868 30.3274 21.8016 30.7842 21.4405 31.0237C20.9948 31.3184 20.1365 31.0863 19.6759 30.9426C19.6612 30.9352 19.6464 30.9279 19.6317 30.9242C18.6629 30.7548 17.4803 30.309 17.3661 29.4138C17.355 29.3107 17.3956 29.2186 17.4582 29.1486C17.4877 29.0933 17.5171 29.0418 17.5503 28.9939C17.694 28.7949 17.8597 28.6181 18.0256 28.4376C18.3055 28.0213 18.6076 27.6198 18.9281 27.2329C19.3923 26.6729 19.9632 25.8108 20.6595 25.5235Z" fill="#C41200"/>
<path d="M20.8295 21.4863C19.1312 20.0901 17.477 17.9276 16.6223 15.9272C15.9702 14.4057 17.6281 13.4774 18.9064 13.0574C20.6305 12.49 21.3157 12.9837 21.4888 14.7078C21.6325 16.1925 21.6988 17.6882 21.6877 19.1802C21.684 19.8101 21.8609 20.8269 21.4925 21.3943C21.5514 21.6264 21.2015 21.7921 21.0025 21.6337C20.973 21.6116 20.9436 21.5821 20.9104 21.5563C20.881 21.5379 20.8552 21.5158 20.8295 21.4863Z" fill="#C41200"/>
<path d="M20.645 23.6487C20.7814 24.2529 20.354 24.496 19.853 24.7244C18.9615 25.126 18.0258 25.4465 17.0863 25.7118C16.5411 25.8628 15.7049 26.2238 15.1781 25.8223C14.7802 25.5202 14.7544 24.8902 14.7176 24.4334C14.6366 23.4129 14.7913 20.9778 16.2059 20.8747C16.8985 20.8268 17.7642 21.4457 18.3316 21.7699C19.0868 22.2047 19.8973 22.7019 20.4609 23.3835C20.5455 23.4314 20.6155 23.5161 20.645 23.6487Z" fill="#C41200"/>
</svg>
